<svg width="20" height="20" viewBox="0 0 20 20" fill="none" xmlns="http://www.w3.org/2000/svg">
<g id="icon_file_pdf_fills" clip-path="url(#clip0_1348_18383)">
<g id="Group 1068">
<rect id="Rectangle 755" width="20" height="20" rx="5" fill="#FF3232"/>
<g id="PDF">
<path d="M5.70473 8C6.71337 8 7.44498 8.30243 7.44498 9.18688C7.44498 9.93438 6.95487 10.5792 5.49874 10.5792H5.08677V12H4V8H5.70473ZM5.52716 8.73609H5.08677V9.86591H5.44192C6.16643 9.86591 6.3227 9.61484 6.3227 9.3067C6.3227 8.91298 6.0812 8.73609 5.52716 8.73609Z" fill="white"/>
<path d="M8.25212 12V8H9.80059C11.4201 8 12.1517 8.63338 12.1517 9.91155C12.1517 10.933 11.6474 12 9.81479 12H8.25212ZM9.33179 8.71897V11.281H9.72956C10.7453 11.281 11.0365 10.7618 11.0365 9.99144C11.0365 9.0271 10.5109 8.71897 9.72245 8.71897H9.33179Z" fill="white"/>
<path d="M14.1319 12H13.0522V8H16V8.71897H14.1319V9.78031H15.7372V10.4993H14.1319V12Z" fill="white"/>
</g>
</g>
</g>
<defs>
<clipPath id="clip0_1348_18383">
<rect width="20" height="20" fill="white"/>
</clipPath>
</defs>
</svg>
