<svg width="20" height="20" viewBox="0 0 20 20" fill="none" xmlns="http://www.w3.org/2000/svg">
<g id="icon_file_doc_fills" clip-path="url(#clip0_1348_18387)">
<g id="Group 1069">
<rect id="Rectangle 756" width="20" height="20" rx="5" fill="#367AFF"/>
<path id="W" d="M7.90084 12.0485H7.94304C8.03797 11.1241 8.15401 10.6676 8.30169 9.91441L9.09283 6H11.0021L11.8354 9.903C12.0253 10.7817 12.1203 11.2839 12.2046 12.0257H12.2468C12.2996 11.3181 12.4367 10.428 12.6582 9.42368L13.3966 6H15L13.1118 14H11.2131L10.4641 10.4508C10.2321 9.36662 10.1266 8.73894 10.0422 7.96291H10C9.89451 8.78459 9.79958 9.37803 9.64135 10.0856L8.78692 14H6.87764L5 6H6.74051L7.46835 9.22967C7.66878 10.1198 7.8692 11.1926 7.90084 12.0485Z" fill="white"/>
</g>
</g>
<defs>
<clipPath id="clip0_1348_18387">
<rect width="20" height="20" fill="white"/>
</clipPath>
</defs>
</svg>
