<svg width="37" height="37" viewBox="0 0 37 37" fill="none" xmlns="http://www.w3.org/2000/svg">
<g id="empty-inbox_svgrepo.com" clip-path="url(#clip0_464_5781)">
<g id="empty inbox">
<path id="Path 26" d="M37 3.54226C37 3.07709 36.9084 2.61647 36.7304 2.1867C36.5524 1.75693 36.2915 1.36645 35.9626 1.03752C35.6337 0.708583 35.2432 0.447653 34.8134 0.269635C34.3837 0.0916178 33.923 -2.60636e-10 33.4579 0H3.54217C3.077 -2.60582e-10 2.61638 0.0916178 2.18661 0.269635C1.75685 0.447653 1.36635 0.708583 1.03743 1.03752C0.708507 1.36645 0.447609 1.75693 0.269606 2.1867C0.0916033 2.61647 -1.55718e-05 3.07709 1.98516e-09 3.54226V33.4576C-1.55717e-05 33.9228 0.0916047 34.3834 0.269606 34.8132C0.447608 35.243 0.708509 35.6335 1.03743 35.9624C1.36635 36.2913 1.75685 36.5523 2.18661 36.7303C2.61638 36.9083 3.077 37 3.54217 37H33.4579C33.923 37 34.3837 36.9083 34.8134 36.7303C35.2432 36.5523 35.6337 36.2913 35.9626 35.9624C36.2915 35.6335 36.5524 35.243 36.7304 34.8132C36.9084 34.3834 37 33.9228 37 33.4576V3.54226ZM3.56956 2.96474H33.48C33.5657 2.95985 33.6515 2.97228 33.7322 3.00131C33.813 3.03034 33.887 3.07538 33.95 3.13371C34.0129 3.19204 34.0634 3.26247 34.0985 3.34078C34.1336 3.41909 34.1525 3.50369 34.1541 3.58948V20.3974H25.433C25.2449 20.3962 25.0584 20.4322 24.8843 20.5033C24.7101 20.5745 24.5518 20.6793 24.4183 20.8118C24.2848 20.9444 24.1788 21.1019 24.1064 21.2755C24.034 21.4492 23.9966 21.6354 23.9964 21.8235C23.9952 23.3081 23.4123 24.7332 22.3727 25.793C21.3331 26.8529 19.9195 27.4631 18.4352 27.4928C16.9508 27.5226 15.514 26.9695 14.4327 25.9522C13.3514 24.9349 12.7119 23.5343 12.6512 22.0509C12.664 21.9763 12.6704 21.9006 12.6704 21.8249C12.6702 21.6367 12.6328 21.4504 12.5604 21.2767C12.488 21.103 12.3821 20.9453 12.2486 20.8126C12.1151 20.68 11.9566 20.575 11.7825 20.5038C11.6083 20.4325 11.4217 20.3964 11.2335 20.3974H2.84639V3.58948C2.84615 3.22067 3.20052 2.96474 3.56933 2.96474H3.56956ZM33.48 34.1538H3.56933C3.20052 34.1538 2.84592 33.8692 2.84592 33.5V23.2436H9.89324C10.2327 25.233 11.2649 27.0381 12.8073 28.3396C14.3497 29.6411 16.3027 30.355 18.3208 30.355C20.3389 30.355 22.292 29.6411 23.8344 28.3396C25.3767 27.0381 26.409 25.233 26.7484 23.2436H34.1536V33.4997C34.1527 33.587 34.1345 33.6732 34.1001 33.7534C34.0656 33.8336 34.0156 33.9062 33.953 33.967C33.8904 34.0279 33.8164 34.0757 33.7352 34.1077C33.654 34.1398 33.5673 34.1555 33.48 34.1538Z" fill="#B1B7E6"/>
</g>
</g>
<defs>
<clipPath id="clip0_464_5781">
<rect width="37" height="37" fill="white"/>
</clipPath>
</defs>
</svg>
