<svg width="25" height="25" viewBox="0 0 25 25" fill="none" xmlns="http://www.w3.org/2000/svg">
<g id="icon-book">
<path id="Vector" d="M21.08 5.43457H16.3615C15.3489 5.43457 14.359 5.71815 13.5073 6.25311L12.5008 6.88261L11.4944 6.25311C10.6436 5.71825 9.65255 5.43404 8.64021 5.43457H3.92166C3.55663 5.43457 3.26172 5.72217 3.26172 6.07814V17.5016C3.26172 17.8575 3.55663 18.1451 3.92166 18.1451H8.64021C9.6528 18.1451 10.6427 18.4287 11.4944 18.9637L12.4101 19.5389C12.4369 19.5549 12.4679 19.565 12.4988 19.565C12.5297 19.565 12.5607 19.557 12.5875 19.5389L13.5031 18.9637C14.3569 18.4287 15.3489 18.1451 16.3615 18.1451H21.08C21.4451 18.1451 21.74 17.8575 21.74 17.5016V6.07814C21.74 5.72217 21.4451 5.43457 21.08 5.43457ZM8.64021 16.6971H4.74658V6.88261H8.64021C9.37027 6.88261 10.0797 7.08574 10.6922 7.46987L11.6986 8.09936L11.8409 8.18986V17.4814C10.8593 16.9666 9.76211 16.6971 8.64021 16.6971ZM20.2551 16.6971H16.3615C15.2396 16.6971 14.1424 16.9666 13.1608 17.4814V8.18986L13.3031 8.09936L14.3095 7.46987C14.922 7.08574 15.6314 6.88261 16.3615 6.88261H20.2551V16.6971ZM10.1271 9.4569H6.29537C6.21494 9.4569 6.14895 9.52528 6.14895 9.60773V10.5128C6.14895 10.5952 6.21494 10.6636 6.29537 10.6636H10.1251C10.2055 10.6636 10.2715 10.5952 10.2715 10.5128V9.60773C10.2736 9.52528 10.2076 9.4569 10.1271 9.4569ZM14.7281 9.60773V10.5128C14.7281 10.5952 14.7941 10.6636 14.8746 10.6636H18.7043C18.7847 10.6636 18.8507 10.5952 18.8507 10.5128V9.60773C18.8507 9.52528 18.7847 9.4569 18.7043 9.4569H14.8746C14.7941 9.4569 14.7281 9.52528 14.7281 9.60773ZM10.1271 12.2725H6.29537C6.21494 12.2725 6.14895 12.3409 6.14895 12.4234V13.3284C6.14895 13.4108 6.21494 13.4792 6.29537 13.4792H10.1251C10.2055 13.4792 10.2715 13.4108 10.2715 13.3284V12.4234C10.2736 12.3409 10.2076 12.2725 10.1271 12.2725ZM18.7063 12.2725H14.8746C14.7941 12.2725 14.7281 12.3409 14.7281 12.4234V13.3284C14.7281 13.4108 14.7941 13.4792 14.8746 13.4792H18.7043C18.7847 13.4792 18.8507 13.4108 18.8507 13.3284V12.4234C18.8528 12.3409 18.7868 12.2725 18.7063 12.2725Z" fill="#B1B7E6"/>
</g>
</svg>
