<svg width="32" height="32" viewBox="0 0 32 32" fill="none" xmlns="http://www.w3.org/2000/svg">
<g id="Group">
<g id="Layer_1_3_">
<path id="Vector" d="M32 10.1821V1.4543C32 0.650894 31.3484 0 30.545 0H21.8186C21.0145 0 20.3636 0.651574 20.3636 1.4543V5.09072C13.2582 5.09072 7.28851 9.97447 5.59047 16.5569L4.0783 16.2907C3.80664 16.2437 3.53157 16.3527 3.36749 16.574C3.20409 16.7952 3.17821 17.0907 3.30281 17.3365L4.8783 20.4473C2.11677 20.8974 0 23.294 0 26.1821C0 29.3903 2.61038 32 5.81855 32C8.78025 32 11.2259 29.7736 11.586 26.9093H16.7271V28.3636C16.7271 28.6393 16.8831 28.8906 17.1295 29.0145C17.376 29.137 17.6708 29.1111 17.8921 28.945L20.4344 27.0373C20.8497 29.8397 23.2654 31.9993 26.1808 31.9993C29.3896 32 32 29.3903 32 26.1821C32 23.2204 29.7736 20.7741 26.9079 20.4146V15.2729H28.3636C28.638 15.2729 28.8906 15.1169 29.0131 14.8711C29.137 14.6254 29.1111 14.3299 28.945 14.1093L27.0897 11.6371H30.543C31.3484 11.6364 32 10.9849 32 10.1821ZM5.81855 29.0907C4.21447 29.0907 2.90928 27.7862 2.90928 26.1828C2.90928 24.5794 4.21447 23.2735 5.81855 23.2735C7.42264 23.2735 8.72715 24.5794 8.72715 26.1828C8.72715 27.7862 7.42264 29.0907 5.81855 29.0907ZM29.0921 26.1821C29.0921 27.7855 27.7862 29.09 26.1828 29.09C24.5794 29.09 23.2749 27.7855 23.2749 26.1821C23.2749 24.5787 24.5794 23.2729 26.1828 23.2729C27.7862 23.2729 29.0921 24.5787 29.0921 26.1821ZM23.3498 14.8705C23.4737 15.1169 23.7249 15.2722 24 15.2722H25.455V20.4133C22.8718 20.7387 20.8157 22.7602 20.4351 25.3256L17.8914 23.4172C17.6715 23.2524 17.3767 23.2266 17.1302 23.3484C16.8844 23.473 16.7278 23.7236 16.7278 23.9993V25.4536H11.5867C11.2572 22.8242 9.16766 20.7374 6.53617 20.4119C6.53821 20.3956 6.54638 20.3813 6.54638 20.3636C6.54638 20.3602 6.54638 20.3588 6.54638 20.3561L8.74757 18.2951C8.94843 18.1072 9.02536 17.8213 8.94774 17.5571C8.86808 17.2923 8.64817 17.0955 8.37651 17.0478L7.02638 16.8095C8.60051 10.91 13.9751 6.54502 20.3643 6.54502V10.1814C20.3643 10.9849 21.0151 11.6357 21.8192 11.6357H25.2732L23.4186 14.1086C23.2524 14.3292 23.2259 14.624 23.3498 14.8705ZM29.0921 8.72715H23.2729V2.90928H29.0921V8.72715Z" fill="#8F9BC8"/>
</g>
</g>
</svg>
