<svg width="25" height="25" viewBox="0 0 25 25" fill="none" xmlns="http://www.w3.org/2000/svg">
<g id="icon-search">
<path id="Vector" fill-rule="evenodd" clip-rule="evenodd" d="M5.00192 11.2567C5.00192 9.59785 5.66091 8.00691 6.83391 6.83391C8.00692 5.66091 9.59785 5.00192 11.2567 5.00192C12.9156 5.00192 14.5065 5.66091 15.6795 6.83391C16.8525 8.00691 17.5115 9.59785 17.5115 11.2567C17.5115 12.9156 16.8525 14.5065 15.6795 15.6795C14.5065 16.8525 12.9156 17.5115 11.2567 17.5115C9.59785 17.5115 8.00692 16.8525 6.83391 15.6795C5.66091 14.5065 5.00192 12.9156 5.00192 11.2567ZM11.2567 2.5C9.86921 2.5 8.50155 2.82972 7.26646 3.46198C6.03136 4.09425 4.9642 5.01096 4.1529 6.13658C3.3416 7.26219 2.8094 8.56448 2.60015 9.93614C2.3909 11.3078 2.5106 12.7095 2.94937 14.0258C3.38814 15.3422 4.13343 16.5354 5.12382 17.5071C6.11421 18.4789 7.32135 19.2014 8.64575 19.6151C9.97016 20.0289 11.3739 20.1219 12.7414 19.8867C14.1088 19.6514 15.4007 19.0946 16.5108 18.2621C16.5463 18.3094 16.5852 18.3541 16.6271 18.396L20.38 22.1488C20.6159 22.3767 20.9319 22.5028 21.2599 22.5C21.5879 22.4971 21.9017 22.3655 22.1336 22.1336C22.3655 21.9017 22.4971 21.5879 22.5 21.2599C22.5028 20.9319 22.3767 20.6159 22.1488 20.38L18.396 16.6271C18.3542 16.5852 18.3094 16.5463 18.2621 16.5108C19.2378 15.2098 19.832 13.6628 19.9781 12.0431C20.1241 10.4235 19.8162 8.79514 19.089 7.3406C18.3617 5.88606 17.2438 4.66277 15.8604 3.80781C14.4771 2.95285 12.883 2.5 11.2567 2.5Z" fill="#B1B7E6"/>
</g>
</svg>
