<svg width="20" height="21" viewBox="0 0 20 21" fill="none" xmlns="http://www.w3.org/2000/svg">
<g id="icon-mail">
<path id="Vector (Stroke)" fill-rule="evenodd" clip-rule="evenodd" d="M3.19929 6.6C3.19929 5.4402 4.11262 4.5 5.23927 4.5H14.7592C15.8858 4.5 16.7991 5.44021 16.7991 6.6V7.28914C16.7992 7.29596 16.7992 7.30277 16.7991 7.30957V13.6C16.7991 14.7598 15.8858 15.7 14.7592 15.7H5.23927C4.11263 15.7 3.19929 14.7598 3.19929 13.6V7.30957C3.19919 7.30277 3.19919 7.29596 3.19929 7.28914V6.6ZM4.55928 8.60796V13.6C4.55928 13.9866 4.86371 14.3 5.23927 14.3H14.7592C15.1347 14.3 15.4392 13.9866 15.4392 13.6V8.60796L11.1308 11.5647C11.1308 11.5647 11.1308 11.5647 11.1308 11.5647C10.4456 12.035 9.55287 12.035 8.86764 11.5647C8.86764 11.5647 8.86763 11.5647 8.86762 11.5647L4.55928 8.60796ZM15.4392 6.92537L10.3764 10.3998L10.3764 10.3999C10.148 10.5566 9.85045 10.5566 9.62205 10.3999L9.62203 10.3998L4.55928 6.92537V6.6C4.55928 6.2134 4.86372 5.9 5.23927 5.9H14.7592C15.1347 5.9 15.4392 6.21339 15.4392 6.6V6.92537Z" fill="#0066FF"/>
</g>
</svg>
