<svg width="20" height="20" viewBox="0 0 20 20" fill="none" xmlns="http://www.w3.org/2000/svg">
<path d="M5.09151 5.09054C5.27772 4.90438 5.53025 4.7998 5.79355 4.7998C6.05685 4.7998 6.30938 4.90438 6.49559 5.09054L10.0068 8.60172L13.518 5.09054C13.7052 4.90966 13.9561 4.80957 14.2164 4.81183C14.4768 4.81409 14.7258 4.91853 14.9099 5.10263C15.094 5.28674 15.1985 5.53579 15.2007 5.79615C15.203 6.05651 15.1029 6.30734 14.922 6.49461L11.4109 10.0058L14.922 13.517C15.1029 13.7043 15.203 13.9551 15.2007 14.2154C15.1985 14.4758 15.094 14.7249 14.9099 14.909C14.7258 15.0931 14.4768 15.1975 14.2164 15.1998C13.9561 15.202 13.7052 15.1019 13.518 14.9211L10.0068 11.4099L6.49559 14.9211C6.30831 15.1019 6.05748 15.202 5.79713 15.1998C5.53677 15.1975 5.28772 15.0931 5.10361 14.909C4.9195 14.7249 4.81507 14.4758 4.81281 14.2154C4.81055 13.9551 4.91063 13.7043 5.09151 13.517L8.6027 10.0058L5.09151 6.49461C4.90536 6.3084 4.80078 6.05588 4.80078 5.79257C4.80078 5.52927 4.90536 5.27675 5.09151 5.09054Z" fill="#B1B7E6"/>
</svg>
