<svg width="25" height="25" viewBox="0 0 25 25" fill="none" xmlns="http://www.w3.org/2000/svg">
<g id="icon-pen">
<path id="Union" fill-rule="evenodd" clip-rule="evenodd" d="M19.0806 4.92141C20.3091 6.14994 20.3091 8.1418 19.0806 9.37035L18.3708 10.0801C18.3416 10.0704 18.312 10.0604 18.282 10.05C17.5323 9.78988 16.5495 9.29912 15.6263 8.37593C14.7032 7.45274 14.2124 6.46995 13.9523 5.72025C13.9418 5.69011 13.9318 5.66037 13.922 5.63103L14.6316 4.92141C15.8602 3.69286 17.8521 3.69286 19.0806 4.92141ZM17.4365 11.0116L11.5199 16.9282C11.0583 17.3899 10.8273 17.6207 10.5728 17.8193C10.2725 18.0535 9.94763 18.2543 9.60387 18.4182C9.31278 18.5569 9.0034 18.66 8.38533 18.866L8.38326 18.8667L5.11665 19.9556C4.81181 20.0572 4.47572 19.9779 4.2485 19.7507C4.02128 19.5234 3.94194 19.1873 4.04356 18.8825L5.13243 15.6159L5.13274 15.6149C5.33902 14.9961 5.44223 14.6866 5.58104 14.3953C5.74488 14.0515 5.94567 13.7266 6.17988 13.4263C6.37825 13.1721 6.60894 12.9413 7.06991 12.4803L7.071 12.4792L12.9877 6.56254C13.3228 7.36787 13.8734 8.32177 14.7755 9.22392C15.6775 10.1259 16.6313 10.6765 17.4365 11.0116Z" fill="#B1B7E6"/>
</g>
</svg>
