<svg width="25" height="25" viewBox="0 0 25 25" fill="none" xmlns="http://www.w3.org/2000/svg">
<g id="icon-calendar">
<path id="Union" fill-rule="evenodd" clip-rule="evenodd" d="M9.25042 6C9.60941 6 9.90042 6.29101 9.90042 6.65V7.94979H15.1004V6.65C15.1004 6.29101 15.3914 6 15.7504 6C16.1094 6 16.4004 6.29101 16.4004 6.65V7.94979H17.05C18.127 7.94979 19 8.82283 19 9.89979V17.0498C19 18.1267 18.127 18.9998 17.05 18.9998H7.95C6.87304 18.9998 6 18.1267 6 17.0498V9.89979C6 8.82283 6.87304 7.94979 7.95 7.94979H8.60042V6.65C8.60042 6.29101 8.89144 6 9.25042 6ZM7.3 11.2004V17.0498C7.3 17.4088 7.59101 17.6998 7.95 17.6998H17.05C17.409 17.6998 17.7 17.4088 17.7 17.0498V11.2004H7.3Z" fill="#B1B7E6"/>
</g>
</svg>
