<svg width="33" height="20" viewBox="0 0 33 20" fill="none" xmlns="http://www.w3.org/2000/svg">
<g id="Free-Icons">
<g id="Group">
<g id="Group_2">
<path id="Shape (Stroke)" fill-rule="evenodd" clip-rule="evenodd" d="M31.6174 0.992091C32.2492 1.45274 32.388 2.33836 31.9273 2.97017L20.5728 18.5437C20.3342 18.871 19.9669 19.0804 19.5638 19.119C19.1607 19.1576 18.7603 19.0217 18.4639 18.7457L8.5818 9.54319C8.00958 9.01032 7.97768 8.11447 8.51055 7.54225C9.04342 6.97002 9.93927 6.93813 10.5115 7.471L19.2253 15.5856L29.6393 1.30201C30.1 0.670197 30.9856 0.531441 31.6174 0.992091Z" fill="#DEE1F4"/>
<path id="Path (Stroke)" fill-rule="evenodd" clip-rule="evenodd" d="M1.21808 7.5443C1.75008 6.97127 2.64589 6.93802 3.21891 7.47003L13.131 16.6726C13.704 17.2046 13.7373 18.1004 13.2053 18.6734C12.6732 19.2464 11.7774 19.2797 11.2044 18.7477L1.29235 9.54513C0.719321 9.01313 0.68607 8.11732 1.21808 7.5443Z" fill="#DEE1F4"/>
<path id="Path (Stroke)_2" fill-rule="evenodd" clip-rule="evenodd" d="M24.3155 0.984616C24.9514 1.43954 25.0982 2.32387 24.6432 2.95982L19.0185 10.8227C18.5636 11.4586 17.6793 11.6054 17.0433 11.1504C16.4074 10.6955 16.2606 9.81119 16.7156 9.17525L22.3403 1.31239C22.7952 0.676438 23.6795 0.52969 24.3155 0.984616Z" fill="#DEE1F4"/>
</g>
</g>
</g>
</svg>
