<svg width="15" height="16" viewBox="0 0 15 16" fill="none" xmlns="http://www.w3.org/2000/svg">
<g id="Group">
<g id="Group_2">
<path id="Vector" d="M13.5 9.4998H10.75C9.925 9.4998 9.25 8.8248 9.25 7.9998C9.375 5.7748 10.4 5.6498 10.5 4.2248C10.6 2.7248 9.65 1.3748 8.175 1.0498C6.225 0.6498 4.5 2.1248 4.5 3.9998C4.5 5.6498 5.625 5.6498 5.75 7.9998C5.75 8.8248 5.075 9.4998 4.25 9.4998H1.5C0.675 9.4998 0 10.1748 0 10.9998V11.9998C0 12.2748 0.225 12.4998 0.5 12.4998H14.5C14.775 12.4998 15 12.2748 15 11.9998V10.9998C15 10.1748 14.325 9.4998 13.5 9.4998Z" fill="#B1B7E6"/>
</g>
<g id="Group_3">
<path id="Vector_2" d="M13.525 14H1.475C1.2 14 1 14.225 1 14.475V14.5C1 15.325 1.675 16 2.5 16H12.525C13.35 16 14 15.325 14 14.5V14.475C14 14.225 13.775 14 13.525 14Z" fill="#B1B7E6"/>
</g>
</g>
</svg>
