<svg width="25" height="25" viewBox="0 0 25 25" fill="none" xmlns="http://www.w3.org/2000/svg">
<g id="icon-upadte">
<path id="Vector (Stroke)" fill-rule="evenodd" clip-rule="evenodd" d="M13.648 6.291C12.1747 5.98138 10.6407 6.22167 9.32797 6.96771L8.89183 6.17741L9.32797 6.96771C8.01523 7.71376 7.01186 8.91546 6.50221 10.352L5.66239 10.0452L6.50221 10.352C5.99255 11.7886 6.01084 13.3636 6.55371 14.7876C7.09657 16.2116 8.12756 17.3889 9.45724 18.1034L9.45727 18.1034C10.787 18.8179 12.326 19.0214 13.7917 18.6766C15.2575 18.3319 16.5514 17.4619 17.4357 16.2267C17.7255 15.822 18.2836 15.7323 18.6825 16.0263C19.0813 16.3204 19.1697 16.8868 18.8799 17.2915C17.7429 18.8797 16.0793 19.9982 14.1948 20.4414C12.3103 20.8847 10.3315 20.623 8.6219 19.7044C6.9123 18.7858 5.58675 17.2721 4.88879 15.4412C4.19082 13.6103 4.1673 11.5854 4.82257 9.73839L4.82257 9.73838C5.47785 7.89136 6.76789 6.34631 8.4557 5.38711C10.1435 4.4279 12.1157 4.11897 14.01 4.51705L13.8421 5.33983L14.01 4.51705C15.9042 4.91514 17.5933 5.99352 18.7669 7.55404L18.767 7.55407C19.5164 8.55063 20.0235 9.70108 20.2605 10.9127C20.6111 10.6025 21.1437 10.6168 21.4775 10.9556C21.8261 11.3093 21.8261 11.8829 21.4775 12.2366L20.1387 13.5953C19.9713 13.7652 19.7442 13.8606 19.5075 13.8606C19.2708 13.8606 19.0437 13.7652 18.8763 13.5953L17.5375 12.2366C17.1889 11.8829 17.1889 11.3093 17.5375 10.9556C17.765 10.7247 18.0848 10.6445 18.3764 10.7151C18.1626 9.97545 17.816 9.27567 17.3478 8.65311C16.435 7.43933 15.1213 6.60062 13.648 6.291Z" fill="#B1B7E6"/>
<path id="Vector (Stroke)_2" fill-rule="evenodd" clip-rule="evenodd" d="M12.8266 8.6958C13.3068 8.6958 13.6962 9.0743 13.6962 9.54121V12.5727L16.0502 14.8613C16.3898 15.1914 16.3898 15.7267 16.0502 16.0569C15.7106 16.387 15.16 16.387 14.8204 16.0569L12.2117 13.5207C12.0486 13.3621 11.957 13.1471 11.957 12.9229V9.54121C11.957 9.0743 12.3463 8.6958 12.8266 8.6958Z" fill="#B1B7E6"/>
</g>
</svg>
