<svg width="45" height="45" viewBox="0 0 45 45" fill="none" xmlns="http://www.w3.org/2000/svg">
<g id="img-list check">
<path id="Vector (Stroke)" fill-rule="evenodd" clip-rule="evenodd" d="M16.3185 6.16687C17.0547 6.89505 17.0613 8.08221 16.3331 8.81848L9.84274 15.381C9.49053 15.7371 9.01048 15.9375 8.50961 15.9375C8.00874 15.9375 7.52869 15.7371 7.17648 15.381L4.29187 12.4643C3.56369 11.728 3.57025 10.5409 4.30652 9.81269C5.04279 9.08452 6.22996 9.09108 6.95813 9.82735L8.50962 11.3961L13.6669 6.18152C14.395 5.44525 15.5822 5.43869 16.3185 6.16687ZM18.75 11.2499C18.7501 10.2143 19.5896 9.37493 20.6251 9.375L39.3751 9.37635C40.4107 9.37643 41.2501 10.216 41.25 11.2515C41.2499 12.287 40.4104 13.1264 39.3749 13.1264L20.6249 13.125C19.5893 13.1249 18.7499 12.2854 18.75 11.2499ZM16.3185 17.4169C17.0547 18.145 17.0613 19.3322 16.3331 20.0685L9.84274 26.631C9.49053 26.9871 9.01048 27.1875 8.5096 27.1875C8.00872 27.1875 7.52867 26.9871 7.17646 26.631L4.29185 23.7142C3.56369 22.9779 3.57026 21.7908 4.30654 21.0626C5.04282 20.3344 6.22998 20.341 6.95815 21.0773L8.50963 22.6461L13.6669 17.4315C14.395 16.6953 15.5822 16.6887 16.3185 17.4169ZM18.75 22.4999C18.7501 21.4643 19.5896 20.6249 20.6251 20.625L39.3751 20.6263C40.4107 20.6264 41.2501 21.4659 41.25 22.5014C41.2499 23.537 40.4104 24.3764 39.3749 24.3763L20.6249 24.375C19.5893 24.3749 18.7499 23.5354 18.75 22.4999ZM5.625 33.75C5.625 32.1969 6.88411 30.9375 8.4375 30.9375C9.9909 30.9375 11.25 32.1969 11.25 33.75C11.25 35.3031 9.9909 36.5625 8.4375 36.5625C6.88411 36.5625 5.625 35.3031 5.625 33.75ZM18.75 33.7499C18.7501 32.7143 19.5896 31.8749 20.6251 31.875L39.3751 31.8763C40.4107 31.8764 41.2501 32.7159 41.25 33.7514C41.2499 34.787 40.4104 35.6264 39.3749 35.6263L20.6249 35.625C19.5893 35.6249 18.7499 34.7854 18.75 33.7499Z" fill="#B1B7E6"/>
</g>
</svg>
