<svg width="30" height="30" viewBox="0 0 30 30" fill="none" xmlns="http://www.w3.org/2000/svg">
<g id="icon-settings">
<path id="Vector (Stroke)" fill-rule="evenodd" clip-rule="evenodd" d="M16.7008 10.4375C17.056 9.03576 18.3089 8 19.8 8C21.5674 8 23 9.45509 23 11.25C23 13.0449 21.5674 14.5 19.8 14.5C18.3089 14.5 17.056 13.4642 16.7008 12.0625H7.8C7.35817 12.0625 7 11.6987 7 11.25C7 10.8013 7.35817 10.4375 7.8 10.4375H16.7008ZM19.8 9.625C18.9163 9.625 18.2 10.3525 18.2 11.25C18.2 12.1475 18.9163 12.875 19.8 12.875C20.6837 12.875 21.4 12.1475 21.4 11.25C21.4 10.3525 20.6837 9.625 19.8 9.625ZM10.2 16.125C9.31634 16.125 8.6 16.8525 8.6 17.75C8.6 18.6475 9.31634 19.375 10.2 19.375C11.0837 19.375 11.8 18.6475 11.8 17.75C11.8 16.8525 11.0837 16.125 10.2 16.125ZM7 17.75C7 15.955 8.4327 14.5 10.2 14.5C11.6911 14.5 12.944 15.5357 13.2992 16.9375H22.2C22.6418 16.9375 23 17.3013 23 17.75C23 18.1987 22.6418 18.5625 22.2 18.5625H13.2992C12.944 19.9643 11.6911 21 10.2 21C8.4327 21 7 19.545 7 17.75Z" fill="#8F9BC8"/>
</g>
</svg>
