<svg width="25" height="25" viewBox="0 0 25 25" fill="none" xmlns="http://www.w3.org/2000/svg">
<g id="icon-add">
<path id="Vector" d="M5.1087 11.3913C4.49639 11.3913 4 11.8877 4 12.5C4 13.1123 4.49639 13.6087 5.1087 13.6087V11.3913ZM12.5 13.6087C13.1123 13.6087 13.6087 13.1123 13.6087 12.5C13.6087 11.8877 13.1123 11.3913 12.5 11.3913V13.6087ZM12.5 11.3913C11.8877 11.3913 11.3913 11.8877 11.3913 12.5C11.3913 13.1123 11.8877 13.6087 12.5 13.6087V11.3913ZM19.8913 13.6087C20.5036 13.6087 21 13.1123 21 12.5C21 11.8877 20.5036 11.3913 19.8913 11.3913V13.6087ZM13.6087 12.5C13.6087 11.8877 13.1123 11.3913 12.5 11.3913C11.8877 11.3913 11.3913 11.8877 11.3913 12.5H13.6087ZM11.3913 19.8913C11.3913 20.5036 11.8877 21 12.5 21C13.1123 21 13.6087 20.5036 13.6087 19.8913H11.3913ZM11.3913 12.5C11.3913 13.1123 11.8877 13.6087 12.5 13.6087C13.1123 13.6087 13.6087 13.1123 13.6087 12.5H11.3913ZM13.6087 5.1087C13.6087 4.49639 13.1123 4 12.5 4C11.8877 4 11.3913 4.49639 11.3913 5.1087H13.6087ZM5.1087 13.6087H12.5V11.3913H5.1087V13.6087ZM12.5 13.6087H19.8913V11.3913H12.5V13.6087ZM12.5 12.5H11.3913V12.5015C11.3913 12.5016 11.3913 12.5033 11.3913 12.5033C11.3913 12.5031 11.3913 12.5034 11.3913 12.5033C11.3913 12.5033 11.3913 12.5049 11.3913 12.505C11.3913 12.5049 11.3913 12.5052 11.3913 12.505C11.3913 12.5052 11.3913 12.5064 11.3913 12.5065C11.3913 12.5067 11.3913 12.508 11.3913 12.5081C11.3913 12.5083 11.3913 12.5095 11.3913 12.5096C11.3913 12.5098 11.3913 12.5111 11.3913 12.5114C11.3913 12.5115 11.3913 12.5129 11.3913 12.5132C11.3913 12.5133 11.3913 12.5149 11.3913 12.5151C11.3913 12.5148 11.3913 12.5154 11.3913 12.5151C11.3913 12.5154 11.3913 12.5163 11.3913 12.5166C11.3913 12.5163 11.3913 12.5169 11.3913 12.5166C11.3913 12.5169 11.3913 12.5179 11.3913 12.518C11.3913 12.5177 11.3913 12.5183 11.3913 12.518C11.3913 12.5183 11.3913 12.5194 11.3913 12.5197C11.3913 12.5194 11.3913 12.52 11.3913 12.5197C11.3913 12.52 11.3913 12.5211 11.3913 12.5214C11.3913 12.5211 11.3913 12.5217 11.3913 12.5214C11.3913 12.5217 11.3913 12.5229 11.3913 12.5232C11.3913 12.5228 11.3913 12.5235 11.3913 12.5232C11.3913 12.5235 11.3913 12.5248 11.3913 12.5251C11.3913 12.5248 11.3913 12.5254 11.3913 12.5251C11.3913 12.5254 11.3913 12.5268 11.3913 12.5272C11.3913 12.5268 11.3913 12.5275 11.3913 12.5272C11.3913 12.5275 11.3913 12.529 11.3913 12.5293C11.3913 12.529 11.3913 12.5296 11.3913 12.5293C11.3913 12.5297 11.3913 12.531 11.3913 12.5315C11.3913 12.531 11.3913 12.5319 11.3913 12.5315C11.3913 12.5318 11.3913 12.5334 11.3913 12.5339C11.3913 12.5334 11.3913 12.5341 11.3913 12.5339C11.3913 12.5343 11.3913 12.5358 11.3913 12.5362C11.3913 12.5358 11.3913 12.5367 11.3913 12.5362C11.3913 12.5367 11.3913 12.5384 11.3913 12.5389C11.3913 12.5384 11.3913 12.5393 11.3913 12.5389C11.3913 12.5393 11.3913 12.5411 11.3913 12.5415C11.3913 12.5411 11.3913 12.542 11.3913 12.5415C11.3913 12.542 11.3913 12.5438 11.3913 12.5443C11.3913 12.5439 11.3913 12.5448 11.3913 12.5443C11.3913 12.5449 11.3913 12.5467 11.3913 12.5472C11.3913 12.5477 11.3913 12.5482 11.3913 12.5488C11.3913 12.5492 11.3913 12.5497 11.3913 12.5503C11.3913 12.5509 11.3913 12.5513 11.3913 12.5519C11.3913 12.5523 11.3913 12.5529 11.3913 12.5534C11.3913 12.554 11.3913 12.5545 11.3913 12.5551C11.3913 12.5556 11.3913 12.5562 11.3913 12.5568C11.3913 12.5574 11.3913 12.5578 11.3913 12.5584C11.3913 12.559 11.3913 12.5596 11.3913 12.5602C11.3913 12.5608 11.3913 12.5613 11.3913 12.5619C11.3913 12.5625 11.3913 12.5631 11.3913 12.5637C11.3913 12.5643 11.3913 12.565 11.3913 12.5656C11.3913 12.5662 11.3913 12.5668 11.3913 12.5674C11.3913 12.5681 11.3913 12.5687 11.3913 12.5693C11.3913 12.5701 11.3913 12.5707 11.3913 12.5713C11.3913 12.572 11.3913 12.5726 11.3913 12.5733C11.3913 12.5739 11.3913 12.5747 11.3913 12.5752C11.3913 12.576 11.3913 12.5767 11.3913 12.5773C11.3913 12.5781 11.3913 12.5788 11.3913 12.5795C11.3913 12.5801 11.3913 12.5809 11.3913 12.5816C11.3913 12.5823 11.3913 12.5831 11.3913 12.5838C11.3913 12.5844 11.3913 12.5851 11.3913 12.5859C11.3913 12.5866 11.3913 12.5875 11.3913 12.5883C11.3913 12.589 11.3913 12.5897 11.3913 12.5905C11.3913 12.5912 11.3913 12.5919 11.3913 12.5928C11.3913 12.5936 11.3913 12.5943 11.3913 12.5952C11.3913 12.5959 11.3913 12.5968 11.3913 12.5976C11.3913 12.5983 11.3913 12.5992 11.3913 12.5999C11.3913 12.6008 11.3913 12.6017 11.3913 12.6024C11.3913 12.6033 11.3913 12.6042 11.3913 12.605C11.3913 12.6058 11.3913 12.6067 11.3913 12.6076C11.3913 12.6084 11.3913 12.6092 11.3913 12.6101C11.3913 12.611 11.3913 12.6119 11.3913 12.6128C11.3913 12.6137 11.3913 12.6146 11.3913 12.6155C11.3913 12.6163 11.3913 12.6174 11.3913 12.6183C11.3913 12.6191 11.3913 12.62 11.3913 12.6209C11.3913 12.622 11.3913 12.6228 11.3913 12.6237C11.3913 12.6248 11.3913 12.6257 11.3913 12.6267C11.3913 12.6276 11.3913 12.6286 11.3913 12.6295C11.3913 12.6305 11.3913 12.6316 11.3913 12.6325C11.3913 12.6335 11.3913 12.6345 11.3913 12.6356C11.3913 12.6364 11.3913 12.6375 11.3913 12.6385C11.3913 12.6395 11.3913 12.6406 11.3913 12.6416C11.3913 12.6427 11.3913 12.6437 11.3913 12.6447C11.3913 12.6458 11.3913 12.6468 11.3913 12.6478C11.3913 12.649 11.3913 12.65 11.3913 12.6511C11.3913 12.6523 11.3913 12.6533 11.3913 12.6543C11.3913 12.6555 11.3913 12.6565 11.3913 12.6577C11.3913 12.6588 11.3913 12.6599 11.3913 12.661C11.3913 12.6622 11.3913 12.6633 11.3913 12.6644C11.3913 12.6656 11.3913 12.6667 11.3913 12.6679C11.3913 12.6691 11.3913 12.6701 11.3913 12.6713C11.3913 12.6725 11.3913 12.6737 11.3913 12.6749C11.3913 12.6761 11.3913 12.6774 11.3913 12.6786C11.3913 12.6798 11.3913 12.6809 11.3913 12.6821C11.3913 12.6835 11.3913 12.6846 11.3913 12.6858C11.3913 12.6871 11.3913 12.6883 11.3913 12.6897C11.3913 12.6908 11.3913 12.6922 11.3913 12.6934C11.3913 12.6947 11.3913 12.696 11.3913 12.6972C11.3913 12.6985 11.3913 12.6999 11.3913 12.7012C11.3913 12.7024 11.3913 12.7037 11.3913 12.705C11.3913 12.7064 11.3913 12.7077 11.3913 12.709C11.3913 12.7104 11.3913 12.7117 11.3913 12.7132C11.3913 12.7145 11.3913 12.7158 11.3913 12.7172C11.3913 12.7186 11.3913 12.72 11.3913 12.7213C11.3913 12.7228 11.3913 12.7241 11.3913 12.7256C11.3913 12.7269 11.3913 12.7284 11.3913 12.7299C11.3913 12.7312 11.3913 12.7327 11.3913 12.7342C11.3913 12.7356 11.3913 12.737 11.3913 12.7384C11.3913 12.7399 11.3913 12.7414 11.3913 12.7429C11.3913 12.7444 11.3913 12.7458 11.3913 12.7473C11.3913 12.7489 11.3913 12.7504 11.3913 12.7519C11.3913 12.7534 11.3913 12.755 11.3913 12.7565C11.3913 12.758 11.3913 12.7596 11.3913 12.7611C11.3913 12.7627 11.3913 12.7642 11.3913 12.7658C11.3913 12.7674 11.3913 12.7689 11.3913 12.7705C11.3913 12.7721 11.3913 12.7738 11.3913 12.7754C11.3913 12.777 11.3913 12.7787 11.3913 12.7803C11.3913 12.7819 11.3913 12.7835 11.3913 12.7852C11.3913 12.7868 11.3913 12.7884 11.3913 12.79C11.3913 12.7918 11.3913 12.7934 11.3913 12.7952C11.3913 12.7968 11.3913 12.7985 11.3913 12.8002C11.3913 12.8019 11.3913 12.8036 11.3913 12.8054C11.3913 12.807 11.3913 12.8088 11.3913 12.8106C11.3913 12.8124 11.3913 12.8141 11.3913 12.8159C11.3913 12.8177 11.3913 12.8195 11.3913 12.8212C11.3913 12.823 11.3913 12.8248 11.3913 12.8265C11.3913 12.8283 11.3913 12.8301 11.3913 12.832C11.3913 12.8338 11.3913 12.8357 11.3913 12.8375C11.3913 12.8394 11.3913 12.8412 11.3913 12.8431C11.3913 12.8449 11.3913 12.8468 11.3913 12.8487C11.3913 12.8505 11.3913 12.8524 11.3913 12.8543C11.3913 12.8563 11.3913 12.8582 11.3913 12.8601C11.3913 12.862 11.3913 12.8639 11.3913 12.8659C11.3913 12.8678 11.3913 12.8699 11.3913 12.8718C11.3913 12.8737 11.3913 12.8758 11.3913 12.8777C11.3913 12.8798 11.3913 12.8817 11.3913 12.8838C11.3913 12.8857 11.3913 12.8877 11.3913 12.8898C11.3913 12.8917 11.3913 12.8938 11.3913 12.8959C11.3913 12.8979 11.3913 12.9 11.3913 12.9021C11.3913 12.9042 11.3913 12.9062 11.3913 12.9083C11.3913 12.9104 11.3913 12.9126 11.3913 12.9147C11.3913 12.9167 11.3913 12.9189 11.3913 12.921C11.3913 12.9232 11.3913 12.9253 11.3913 12.9275C11.3913 12.9296 11.3913 12.9318 11.3913 12.934C11.3913 12.9362 11.3913 12.9383 11.3913 12.9405C11.3913 12.9427 11.3913 12.945 11.3913 12.9472C11.3913 12.9494 11.3913 12.9516 11.3913 12.954C11.3913 12.9562 11.3913 12.9584 11.3913 12.9606C11.3913 12.963 11.3913 12.9652 11.3913 12.9676C11.3913 12.9698 11.3913 12.9722 11.3913 12.9744C11.3913 12.9767 11.3913 12.9791 11.3913 12.9815C11.3913 12.9837 11.3913 12.9861 11.3913 12.9884C11.3913 12.9908 11.3913 12.9931 11.3913 12.9955C11.3913 12.9979 11.3913 13.0004 11.3913 13.0028C11.3913 13.0051 11.3913 13.0076 11.3913 13.01C11.3913 13.0124 11.3913 13.0149 11.3913 13.0174C11.3913 13.0198 11.3913 13.0223 11.3913 13.0248C11.3913 13.0271 11.3913 13.0297 11.3913 13.0322C11.3913 13.0347 11.3913 13.0372 11.3913 13.0397C11.3913 13.0422 11.3913 13.0447 11.3913 13.0473C11.3913 13.0499 11.3913 13.0524 11.3913 13.0549C11.3913 13.0576 11.3913 13.0601 11.3913 13.0628C11.3913 13.0653 11.3913 13.0679 11.3913 13.0705C11.3913 13.0731 11.3913 13.0758 11.3913 13.0784C11.3913 13.0811 11.3913 13.0838 11.3913 13.0864C11.3913 13.0891 11.3913 13.0917 11.3913 13.0944C11.3913 13.0971 11.3913 13.0997 11.3913 13.1025C11.3913 13.1052 11.3913 13.108 11.3913 13.1107C11.3913 13.1135 11.3913 13.1161 11.3913 13.1189C11.3913 13.1218 11.3913 13.1244 11.3913 13.1272C11.3913 13.13 11.3913 13.1328 11.3913 13.1357C11.3913 13.1385 11.3913 13.1413 11.3913 13.1442C11.3913 13.147 11.3913 13.1498 11.3913 13.1527C11.3913 13.1556 11.3913 13.1584 11.3913 13.1614C11.3913 13.1642 11.3913 13.1671 11.3913 13.1701C11.3913 13.1729 11.3913 13.1759 11.3913 13.1788C11.3913 13.1818 11.3913 13.1847 11.3913 13.1877C11.3913 13.1906 11.3913 13.1936 11.3913 13.1966C11.3913 13.1995 11.3913 13.2026 11.3913 13.2056C11.3913 13.2087 11.3913 13.2116 11.3913 13.2147C11.3913 13.2177 11.3913 13.2208 11.3913 13.2239C11.3913 13.2269 11.3913 13.23 11.3913 13.2331C11.3913 13.2362 11.3913 13.2393 11.3913 13.2424C11.3913 13.2455 11.3913 13.2486 11.3913 13.2518C11.3913 13.2549 11.3913 13.2581 11.3913 13.2613C11.3913 13.2644 11.3913 13.2677 11.3913 13.2708C11.3913 13.274 11.3913 13.2773 11.3913 13.2805C11.3913 13.2836 11.3913 13.2869 11.3913 13.2901C11.3913 13.2934 11.3913 13.2966 11.3913 13.3C11.3913 13.3033 11.3913 13.3065 11.3913 13.3098C11.3913 13.3132 11.3913 13.3164 11.3913 13.3198C11.3913 13.3231 11.3913 13.3265 11.3913 13.3299C11.3913 13.3331 11.3913 13.3365 11.3913 13.3399C11.3913 13.3433 11.3913 13.3467 11.3913 13.3501C11.3913 13.3535 11.3913 13.3569 11.3913 13.3605C11.3913 13.3639 11.3913 13.3673 11.3913 13.3708C11.3913 13.3742 11.3913 13.3778 11.3913 13.3813C11.3913 13.3847 11.3913 13.3883 11.3913 13.3918C11.3913 13.3954 11.3913 13.3989 11.3913 13.4025C11.3913 13.406 11.3913 13.4096 11.3913 13.4131C11.3913 13.4167 11.3913 13.4204 11.3913 13.4239C11.3913 13.4275 11.3913 13.4312 11.3913 13.4349C11.3913 13.4384 11.3913 13.4421 11.3913 13.4458C11.3913 13.4493 11.3913 13.453 11.3913 13.4567C11.3913 13.4604 11.3913 13.4641 11.3913 13.468C11.3913 13.4717 11.3913 13.4754 11.3913 13.4791C11.3913 13.4829 11.3913 13.4866 11.3913 13.4904C11.3913 13.4941 11.3913 13.498 11.3913 13.5018C11.3913 13.5057 11.3913 13.5094 11.3913 13.5132C11.3913 13.517 11.3913 13.5209 11.3913 13.5249C11.3913 13.5287 11.3913 13.5326 11.3913 13.5364C11.3913 13.5404 11.3913 13.5442 11.3913 13.5482C11.3913 13.5521 11.3913 13.5561 11.3913 13.5601C11.3913 13.5641 11.3913 13.5679 11.3913 13.5719C11.3913 13.5759 11.3913 13.5799 11.3913 13.5839C11.3913 13.588 11.3913 13.592 11.3913 13.596C11.3913 13.6001 11.3913 13.6041 11.3913 13.6083C11.3913 13.6122 11.3913 13.6164 11.3913 13.6205C11.3913 13.6245 11.3913 13.6287 11.3913 13.6328C11.3913 13.6369 11.3913 13.6411 11.3913 13.6452C11.3913 13.6495 11.3913 13.6536 11.3913 13.6578C11.3913 13.6621 11.3913 13.6662 11.3913 13.6705C11.3913 13.6746 11.3913 13.6789 11.3913 13.6832C11.3913 13.6875 11.3913 13.6916 11.3913 13.6959C11.3913 13.7002 11.3913 13.7046 11.3913 13.7089C11.3913 13.7132 11.3913 13.7175 11.3913 13.7219C11.3913 13.7262 11.3913 13.7307 11.3913 13.7349C11.3913 13.7394 11.3913 13.7438 11.3913 13.7481C11.3913 13.7525 11.3913 13.757 11.3913 13.7614C11.3913 13.7658 11.3913 13.7703 11.3913 13.7749C11.3913 13.7793 11.3913 13.7837 11.3913 13.7883C11.3913 13.7927 11.3913 13.7973 11.3913 13.8019C11.3913 13.8063 11.3913 13.8109 11.3913 13.8155C11.3913 13.8201 11.3913 13.8247 11.3913 13.8293C11.3913 13.8338 11.3913 13.8384 11.3913 13.8431C11.3913 13.8477 11.3913 13.8523 11.3913 13.857C11.3913 13.8616 11.3913 13.8664 11.3913 13.8711C11.3913 13.8758 11.3913 13.8805 11.3913 13.8853C11.3913 13.8899 11.3913 13.8947 11.3913 13.8995C11.3913 13.9042 11.3913 13.9089 11.3913 13.9138C11.3913 13.9185 11.3913 13.9234 11.3913 13.9281C11.3913 13.933 11.3913 13.9379 11.3913 13.9428C11.3913 13.9475 11.3913 13.9524 11.3913 13.9573C11.3913 13.9623 11.3913 13.9672 11.3913 13.9721C11.3913 13.9769 11.3913 13.982 11.3913 13.9868C11.3913 13.9919 11.3913 13.9967 11.3913 14.0018C11.3913 14.0068 11.3913 14.0118 11.3913 14.0168C11.3913 14.0219 11.3913 14.0269 11.3913 14.0319C11.3913 14.0369 11.3913 14.0421 11.3913 14.0471C11.3913 14.0522 11.3913 14.0573 11.3913 14.0625C11.3913 14.0675 11.3913 14.0727 11.3913 14.0779C11.3913 14.0831 11.3913 14.0882 11.3913 14.0934C11.3913 14.0986 11.3913 14.1038 11.3913 14.1091C11.3913 14.1143 11.3913 14.1194 11.3913 14.1248C11.3913 14.1301 11.3913 14.1353 11.3913 14.1406C11.3913 14.1459 11.3913 14.1512 11.3913 14.1565C11.3913 14.1619 11.3913 14.1672 11.3913 14.1725C11.3913 14.1778 11.3913 14.1833 11.3913 14.1886C11.3913 14.1941 11.3913 14.1994 11.3913 14.2049C11.3913 14.2103 11.3913 14.2158 11.3913 14.2213C11.3913 14.2268 11.3913 14.2322 11.3913 14.2377C11.3913 14.2432 11.3913 14.2486 11.3913 14.2543C11.3913 14.2597 11.3913 14.2653 11.3913 14.271C11.3913 14.2764 11.3913 14.282 11.3913 14.2877C11.3913 14.2933 11.3913 14.2989 11.3913 14.3045C11.3913 14.3101 11.3913 14.3157 11.3913 14.3215C11.3913 14.3271 11.3913 14.3329 11.3913 14.3385C11.3913 14.3443 11.3913 14.35 11.3913 14.3558C11.3913 14.3614 11.3913 14.3672 11.3913 14.3731C11.3913 14.3789 11.3913 14.3846 11.3913 14.3904C11.3913 14.3963 11.3913 14.4021 11.3913 14.408C11.3913 14.4138 11.3913 14.4197 11.3913 14.4256C11.3913 14.4315 11.3913 14.4374 11.3913 14.4433C11.3913 14.4492 11.3913 14.4551 11.3913 14.4611C11.3913 14.4671 11.3913 14.473 11.3913 14.4791C11.3913 14.485 11.3913 14.4911 11.3913 14.4971C11.3913 14.503 11.3913 14.5091 11.3913 14.5152C11.3913 14.5214 11.3913 14.5274 11.3913 14.5335C11.3913 14.5396 11.3913 14.5458 11.3913 14.5518C11.3913 14.558 11.3913 14.5642 11.3913 14.5703C11.3913 14.5765 11.3913 14.5827 11.3913 14.5889C11.3913 14.5951 11.3913 14.6013 11.3913 14.6077C11.3913 14.6139 11.3913 14.6201 11.3913 14.6265C11.3913 14.6328 11.3913 14.639 11.3913 14.6454C11.3913 14.6518 11.3913 14.6581 11.3913 14.6645C11.3913 14.6708 11.3913 14.6772 11.3913 14.6835C11.3913 14.69 11.3913 14.6964 11.3913 14.7029C11.3913 14.7093 11.3913 14.7158 11.3913 14.7223C11.3913 14.7288 11.3913 14.7353 11.3913 14.7418C11.3913 14.7483 11.3913 14.7548 11.3913 14.7613C11.3913 14.7679 11.3913 14.7745 11.3913 14.7811C11.3913 14.7876 11.3913 14.7943 11.3913 14.8009C11.3913 14.8076 11.3913 14.8142 11.3913 14.8209C11.3913 14.8275 11.3913 14.8342 11.3913 14.841C11.3913 14.8476 11.3913 14.8544 11.3913 14.8611C11.3913 14.8679 11.3913 14.8747 11.3913 14.8813C11.3913 14.8881 11.3913 14.8949 11.3913 14.9019C11.3913 14.9087 11.3913 14.9155 11.3913 14.9223C11.3913 14.9292 11.3913 14.936 11.3913 14.943C11.3913 14.9499 11.3913 14.9569 11.3913 14.9638C11.3913 14.9706 11.3913 14.9777 11.3913 14.9847C11.3913 14.9916 11.3913 14.9986 11.3913 15.0057C11.3913 15.0126 11.3913 15.0197 11.3913 15.0268C11.3913 15.0337 11.3913 15.0408 11.3913 15.0479C11.3913 15.055 11.3913 15.0621 11.3913 15.0694C11.3913 15.0765 11.3913 15.0836 11.3913 15.0908C11.3913 15.098 11.3913 15.1051 11.3913 15.1124C11.3913 15.1196 11.3913 15.1269 11.3913 15.1341C11.3913 15.1414 11.3913 15.1486 11.3913 15.156C11.3913 15.1632 11.3913 15.1705 11.3913 15.1779C11.3913 15.1853 11.3913 15.1925 11.3913 15.1999C11.3913 15.2073 11.3913 15.2147 11.3913 15.2221C11.3913 15.2296 11.3913 15.237 11.3913 15.2444C11.3913 15.2519 11.3913 15.2593 11.3913 15.2669C11.3913 15.2744 11.3913 15.2819 11.3913 15.2895C11.3913 15.297 11.3913 15.3046 11.3913 15.3121C11.3913 15.3196 11.3913 15.3273 11.3913 15.3349C11.3913 15.3425 11.3913 15.3502 11.3913 15.3578C11.3913 15.3655 11.3913 15.3731 11.3913 15.3808C11.3913 15.3885 11.3913 15.3964 11.3913 15.404C11.3913 15.4117 11.3913 15.4196 11.3913 15.4274C11.3913 15.4351 11.3913 15.4429 11.3913 15.4508C11.3913 15.4586 11.3913 15.4664 11.3913 15.4743C11.3913 15.4822 11.3913 15.4901 11.3913 15.4979C11.3913 15.5059 11.3913 15.5139 11.3913 15.5217C11.3913 15.5297 11.3913 15.5377 11.3913 15.5457C11.3913 15.5536 11.3913 15.5618 11.3913 15.5698C11.3913 15.5777 11.3913 15.5859 11.3913 15.5939C11.3913 15.602 11.3913 15.6101 11.3913 15.6182C11.3913 15.6264 11.3913 15.6345 11.3913 15.6426C11.3913 15.6508 11.3913 15.659 11.3913 15.6672C11.3913 15.6755 11.3913 15.6836 11.3913 15.6919C11.3913 15.7001 11.3913 15.7084 11.3913 15.7167C11.3913 15.725 11.3913 15.7333 11.3913 15.7417C11.3913 15.75 11.3913 15.7582 11.3913 15.7667C11.3913 15.7751 11.3913 15.7835 11.3913 15.7918C11.3913 15.8002 11.3913 15.8088 11.3913 15.8172C11.3913 15.8256 11.3913 15.8341 11.3913 15.8426C11.3913 15.8511 11.3913 15.8596 11.3913 15.8682C11.3913 15.8768 11.3913 15.8854 11.3913 15.8939C11.3913 15.9025 11.3913 15.9111 11.3913 15.9198C11.3913 15.9284 11.3913 15.9371 11.3913 15.9457C11.3913 15.9544 11.3913 15.9631 11.3913 15.9718C11.3913 15.9806 11.3913 15.9893 11.3913 15.998C11.3913 16.0069 11.3913 16.0156 11.3913 16.0245C11.3913 16.0332 11.3913 16.0421 11.3913 16.0509C11.3913 16.0598 11.3913 16.0687 11.3913 16.0775C11.3913 16.0864 11.3913 16.0954 11.3913 16.1043C11.3913 16.1133 11.3913 16.1222 11.3913 16.1312C11.3913 16.1402 11.3913 16.1492 11.3913 16.1583C11.3913 16.1673 11.3913 16.1764 11.3913 16.1855C11.3913 16.1945 11.3913 16.2036 11.3913 16.2128C11.3913 16.2218 11.3913 16.231 11.3913 16.2401C11.3913 16.2493 11.3913 16.2585 11.3913 16.2678C11.3913 16.277 11.3913 16.2861 11.3913 16.2954C11.3913 16.3047 11.3913 16.3139 11.3913 16.3232C11.3913 16.3325 11.3913 16.3419 11.3913 16.3513C11.3913 16.3606 11.3913 16.3699 11.3913 16.3794C11.3913 16.3887 11.3913 16.3982 11.3913 16.4076C11.3913 16.4171 11.3913 16.4266 11.3913 16.436C11.3913 16.4455 11.3913 16.4549 11.3913 16.4645C11.3913 16.474 11.3913 16.4836 11.3913 16.4932C11.3913 16.5027 11.3913 16.5123 11.3913 16.5221C11.3913 16.5317 11.3913 16.5413 11.3913 16.5509C11.3913 16.5606 11.3913 16.5702 11.3913 16.58C11.3913 16.5898 11.3913 16.5995 11.3913 16.6093C11.3913 16.619 11.3913 16.6288 11.3913 16.6385C11.3913 16.6483 11.3913 16.6582 11.3913 16.6681C11.3913 16.6779 11.3913 16.6878 11.3913 16.6977C11.3913 16.7076 11.3913 16.7175 11.3913 16.7274C11.3913 16.7374 11.3913 16.7473 11.3913 16.7574C11.3913 16.7673 11.3913 16.7773 11.3913 16.7874C11.3913 16.7975 11.3913 16.8075 11.3913 16.8176C11.3913 16.8278 11.3913 16.8378 11.3913 16.848C11.3913 16.8581 11.3913 16.8683 11.3913 16.8785C11.3913 16.8887 11.3913 16.8989 11.3913 16.9091C11.3913 16.9193 11.3913 16.9295 11.3913 16.9398C11.3913 16.95 11.3913 16.9604 11.3913 16.9707C11.3913 16.9811 11.3913 16.9914 11.3913 17.0017C11.3913 17.0121 11.3913 17.0224 11.3913 17.0329C11.3913 17.0433 11.3913 17.0538 11.3913 17.0643C11.3913 17.0748 11.3913 17.0853 11.3913 17.0958C11.3913 17.1063 11.3913 17.1168 11.3913 17.1274C11.3913 17.1379 11.3913 17.1485 11.3913 17.1592C11.3913 17.1697 11.3913 17.1803 11.3913 17.1911C11.3913 17.2018 11.3913 17.2124 11.3913 17.223C11.3913 17.2338 11.3913 17.2445 11.3913 17.2553C11.3913 17.2661 11.3913 17.2769 11.3913 17.2876C11.3913 17.2984 11.3913 17.3092 11.3913 17.3202C11.3913 17.331 11.3913 17.3419 11.3913 17.3528C11.3913 17.3636 11.3913 17.3746 11.3913 17.3855C11.3913 17.3966 11.3913 17.4075 11.3913 17.4185C11.3913 17.4296 11.3913 17.4405 11.3913 17.4516C11.3913 17.4627 11.3913 17.4738 11.3913 17.4848C11.3913 17.4959 11.3913 17.507 11.3913 17.5183C11.3913 17.5293 11.3913 17.5406 11.3913 17.5518C11.3913 17.5629 11.3913 17.5741 11.3913 17.5854C11.3913 17.5966 11.3913 17.608 11.3913 17.6192C11.3913 17.6306 11.3913 17.6418 11.3913 17.6532C11.3913 17.6646 11.3913 17.676 11.3913 17.6874C11.3913 17.6987 11.3913 17.7101 11.3913 17.7217C11.3913 17.733 11.3913 17.7446 11.3913 17.7561C11.3913 17.7675 11.3913 17.779 11.3913 17.7907C11.3913 17.8022 11.3913 17.8138 11.3913 17.8254C11.3913 17.837 11.3913 17.8486 11.3913 17.8602C11.3913 17.8719 11.3913 17.8835 11.3913 17.8952C11.3913 17.907 11.3913 17.9187 11.3913 17.9305C11.3913 17.9422 11.3913 17.954 11.3913 17.9659C11.3913 17.9775 11.3913 17.9894 11.3913 18.0013C11.3913 18.0132 11.3913 18.025 11.3913 18.037C11.3913 18.0488 11.3913 18.0608 11.3913 18.0727C11.3913 18.0847 11.3913 18.0967 11.3913 18.1087C11.3913 18.1206 11.3913 18.1328 11.3913 18.1447C11.3913 18.1569 11.3913 18.169 11.3913 18.1811C11.3913 18.1932 11.3913 18.2053 11.3913 18.2175C11.3913 18.2296 11.3913 18.2419 11.3913 18.254C11.3913 18.2663 11.3913 18.2785 11.3913 18.2908C11.3913 18.3031 11.3913 18.3153 11.3913 18.3276C11.3913 18.34 11.3913 18.3523 11.3913 18.3647C11.3913 18.3771 11.3913 18.3895 11.3913 18.402C11.3913 18.4144 11.3913 18.4268 11.3913 18.4392C11.3913 18.4518 11.3913 18.4642 11.3913 18.4768C11.3913 18.4893 11.3913 18.5019 11.3913 18.5145C11.3913 18.527 11.3913 18.5396 11.3913 18.5523C11.3913 18.5649 11.3913 18.5776 11.3913 18.5903C11.3913 18.603 11.3913 18.6157 11.3913 18.6284C11.3913 18.6411 11.3913 18.6539 11.3913 18.6667C11.3913 18.6794 11.3913 18.6923 11.3913 18.7051C11.3913 18.718 11.3913 18.7309 11.3913 18.7437C11.3913 18.7567 11.3913 18.7696 11.3913 18.7826C11.3913 18.7955 11.3913 18.8085 11.3913 18.8215C11.3913 18.8345 11.3913 18.8475 11.3913 18.8607C11.3913 18.8737 11.3913 18.8867 11.3913 18.8998C11.3913 18.913 11.3913 18.9261 11.3913 18.9393C11.3913 18.9525 11.3913 18.9656 11.3913 18.9789C11.3913 18.9921 11.3913 19.0054 11.3913 19.0187C11.3913 19.0318 11.3913 19.0451 11.3913 19.0586C11.3913 19.0719 11.3913 19.0852 11.3913 19.0987C11.3913 19.112 11.3913 19.1254 11.3913 19.1389C11.3913 19.1523 11.3913 19.1658 11.3913 19.1792C11.3913 19.1927 11.3913 19.2063 11.3913 19.2197C11.3913 19.2333 11.3913 19.2469 11.3913 19.2605C11.3913 19.2741 11.3913 19.2877 11.3913 19.3015C11.3913 19.3151 11.3913 19.3288 11.3913 19.3424C11.3913 19.3562 11.3913 19.3699 11.3913 19.3837C11.3913 19.3974 11.3913 19.4113 11.3913 19.4251C11.3913 19.439 11.3913 19.4527 11.3913 19.4666C11.3913 19.4805 11.3913 19.4944 11.3913 19.5083C11.3913 19.5223 11.3913 19.5362 11.3913 19.5503C11.3913 19.5642 11.3913 19.5782 11.3913 19.5923C11.3913 19.6063 11.3913 19.6203 11.3913 19.6345C11.3913 19.6486 11.3913 19.6628 11.3913 19.6768C11.3913 19.691 11.3913 19.7052 11.3913 19.7194C11.3913 19.7336 11.3913 19.7479 11.3913 19.7621C11.3913 19.7764 11.3913 19.7906 11.3913 19.805C11.3913 19.8193 11.3913 19.8337 11.3913 19.8481C11.3913 19.8625 11.3913 19.8768 11.3913 19.8913H13.6087C13.6087 19.8768 13.6087 19.8625 13.6087 19.8481C13.6087 19.8337 13.6087 19.8193 13.6087 19.805C13.6087 19.7906 13.6087 19.7764 13.6087 19.7621C13.6087 19.7479 13.6087 19.7336 13.6087 19.7194C13.6087 19.7052 13.6087 19.691 13.6087 19.6768C13.6087 19.6628 13.6087 19.6486 13.6087 19.6345C13.6087 19.6203 13.6087 19.6063 13.6087 19.5923C13.6087 19.5782 13.6087 19.5642 13.6087 19.5503C13.6087 19.5362 13.6087 19.5223 13.6087 19.5083C13.6087 19.4944 13.6087 19.4805 13.6087 19.4666C13.6087 19.4527 13.6087 19.439 13.6087 19.4251C13.6087 19.4113 13.6087 19.3974 13.6087 19.3837C13.6087 19.3699 13.6087 19.3562 13.6087 19.3424C13.6087 19.3288 13.6087 19.3151 13.6087 19.3015C13.6087 19.2877 13.6087 19.2741 13.6087 19.2605C13.6087 19.2469 13.6087 19.2333 13.6087 19.2197C13.6087 19.2063 13.6087 19.1927 13.6087 19.1792C13.6087 19.1658 13.6087 19.1523 13.6087 19.1389C13.6087 19.1254 13.6087 19.112 13.6087 19.0987C13.6087 19.0852 13.6087 19.0719 13.6087 19.0586C13.6087 19.0451 13.6087 19.0318 13.6087 19.0187C13.6087 19.0054 13.6087 18.9921 13.6087 18.9789C13.6087 18.9656 13.6087 18.9525 13.6087 18.9393C13.6087 18.9261 13.6087 18.913 13.6087 18.8998C13.6087 18.8867 13.6087 18.8737 13.6087 18.8607C13.6087 18.8475 13.6087 18.8345 13.6087 18.8215C13.6087 18.8085 13.6087 18.7955 13.6087 18.7826C13.6087 18.7696 13.6087 18.7567 13.6087 18.7437C13.6087 18.7309 13.6087 18.718 13.6087 18.7051C13.6087 18.6923 13.6087 18.6794 13.6087 18.6667C13.6087 18.6539 13.6087 18.6411 13.6087 18.6284C13.6087 18.6157 13.6087 18.603 13.6087 18.5903C13.6087 18.5776 13.6087 18.5649 13.6087 18.5523C13.6087 18.5396 13.6087 18.527 13.6087 18.5145C13.6087 18.5019 13.6087 18.4893 13.6087 18.4768C13.6087 18.4642 13.6087 18.4518 13.6087 18.4392C13.6087 18.4268 13.6087 18.4144 13.6087 18.402C13.6087 18.3895 13.6087 18.3771 13.6087 18.3647C13.6087 18.3523 13.6087 18.34 13.6087 18.3276C13.6087 18.3153 13.6087 18.3031 13.6087 18.2908C13.6087 18.2785 13.6087 18.2663 13.6087 18.254C13.6087 18.2419 13.6087 18.2296 13.6087 18.2175C13.6087 18.2053 13.6087 18.1932 13.6087 18.1811C13.6087 18.169 13.6087 18.1569 13.6087 18.1447C13.6087 18.1328 13.6087 18.1206 13.6087 18.1087C13.6087 18.0967 13.6087 18.0847 13.6087 18.0727C13.6087 18.0608 13.6087 18.0488 13.6087 18.037C13.6087 18.025 13.6087 18.0132 13.6087 18.0013C13.6087 17.9894 13.6087 17.9775 13.6087 17.9659C13.6087 17.954 13.6087 17.9422 13.6087 17.9305C13.6087 17.9187 13.6087 17.907 13.6087 17.8952C13.6087 17.8835 13.6087 17.8719 13.6087 17.8602C13.6087 17.8486 13.6087 17.837 13.6087 17.8254C13.6087 17.8138 13.6087 17.8022 13.6087 17.7907C13.6087 17.779 13.6087 17.7675 13.6087 17.7561C13.6087 17.7446 13.6087 17.733 13.6087 17.7217C13.6087 17.7101 13.6087 17.6987 13.6087 17.6874C13.6087 17.676 13.6087 17.6646 13.6087 17.6532C13.6087 17.6418 13.6087 17.6306 13.6087 17.6192C13.6087 17.608 13.6087 17.5966 13.6087 17.5854C13.6087 17.5741 13.6087 17.5629 13.6087 17.5518C13.6087 17.5406 13.6087 17.5293 13.6087 17.5183C13.6087 17.507 13.6087 17.4959 13.6087 17.4848C13.6087 17.4738 13.6087 17.4627 13.6087 17.4516C13.6087 17.4405 13.6087 17.4296 13.6087 17.4185C13.6087 17.4075 13.6087 17.3966 13.6087 17.3855C13.6087 17.3746 13.6087 17.3636 13.6087 17.3528C13.6087 17.3419 13.6087 17.331 13.6087 17.3202C13.6087 17.3092 13.6087 17.2984 13.6087 17.2876C13.6087 17.2769 13.6087 17.2661 13.6087 17.2553C13.6087 17.2445 13.6087 17.2338 13.6087 17.223C13.6087 17.2124 13.6087 17.2018 13.6087 17.1911C13.6087 17.1803 13.6087 17.1697 13.6087 17.1592C13.6087 17.1485 13.6087 17.1379 13.6087 17.1274C13.6087 17.1168 13.6087 17.1063 13.6087 17.0958C13.6087 17.0853 13.6087 17.0748 13.6087 17.0643C13.6087 17.0538 13.6087 17.0433 13.6087 17.0329C13.6087 17.0224 13.6087 17.0121 13.6087 17.0017C13.6087 16.9914 13.6087 16.9811 13.6087 16.9707C13.6087 16.9604 13.6087 16.95 13.6087 16.9398C13.6087 16.9295 13.6087 16.9193 13.6087 16.9091C13.6087 16.8989 13.6087 16.8887 13.6087 16.8785C13.6087 16.8683 13.6087 16.8581 13.6087 16.848C13.6087 16.8378 13.6087 16.8278 13.6087 16.8176C13.6087 16.8075 13.6087 16.7975 13.6087 16.7874C13.6087 16.7773 13.6087 16.7673 13.6087 16.7574C13.6087 16.7473 13.6087 16.7374 13.6087 16.7274C13.6087 16.7175 13.6087 16.7076 13.6087 16.6977C13.6087 16.6878 13.6087 16.6779 13.6087 16.6681C13.6087 16.6582 13.6087 16.6483 13.6087 16.6385C13.6087 16.6288 13.6087 16.619 13.6087 16.6093C13.6087 16.5995 13.6087 16.5898 13.6087 16.58C13.6087 16.5702 13.6087 16.5606 13.6087 16.5509C13.6087 16.5413 13.6087 16.5317 13.6087 16.5221C13.6087 16.5123 13.6087 16.5027 13.6087 16.4932C13.6087 16.4836 13.6087 16.474 13.6087 16.4645C13.6087 16.4549 13.6087 16.4455 13.6087 16.436C13.6087 16.4266 13.6087 16.4171 13.6087 16.4076C13.6087 16.3982 13.6087 16.3887 13.6087 16.3794C13.6087 16.3699 13.6087 16.3606 13.6087 16.3513C13.6087 16.3419 13.6087 16.3325 13.6087 16.3232C13.6087 16.3139 13.6087 16.3047 13.6087 16.2954C13.6087 16.2861 13.6087 16.277 13.6087 16.2678C13.6087 16.2585 13.6087 16.2493 13.6087 16.2401C13.6087 16.231 13.6087 16.2218 13.6087 16.2128C13.6087 16.2036 13.6087 16.1945 13.6087 16.1855C13.6087 16.1764 13.6087 16.1673 13.6087 16.1583C13.6087 16.1492 13.6087 16.1402 13.6087 16.1312C13.6087 16.1222 13.6087 16.1133 13.6087 16.1043C13.6087 16.0954 13.6087 16.0864 13.6087 16.0775C13.6087 16.0687 13.6087 16.0598 13.6087 16.0509C13.6087 16.0421 13.6087 16.0332 13.6087 16.0245C13.6087 16.0156 13.6087 16.0069 13.6087 15.998C13.6087 15.9893 13.6087 15.9806 13.6087 15.9718C13.6087 15.9631 13.6087 15.9544 13.6087 15.9457C13.6087 15.9371 13.6087 15.9284 13.6087 15.9198C13.6087 15.9111 13.6087 15.9025 13.6087 15.8939C13.6087 15.8854 13.6087 15.8768 13.6087 15.8682C13.6087 15.8596 13.6087 15.8511 13.6087 15.8426C13.6087 15.8341 13.6087 15.8256 13.6087 15.8172C13.6087 15.8088 13.6087 15.8002 13.6087 15.7918C13.6087 15.7835 13.6087 15.7751 13.6087 15.7667C13.6087 15.7582 13.6087 15.75 13.6087 15.7417C13.6087 15.7333 13.6087 15.725 13.6087 15.7167C13.6087 15.7084 13.6087 15.7001 13.6087 15.6919C13.6087 15.6836 13.6087 15.6755 13.6087 15.6672C13.6087 15.659 13.6087 15.6508 13.6087 15.6426C13.6087 15.6345 13.6087 15.6264 13.6087 15.6182C13.6087 15.6101 13.6087 15.602 13.6087 15.5939C13.6087 15.5859 13.6087 15.5777 13.6087 15.5698C13.6087 15.5618 13.6087 15.5536 13.6087 15.5457C13.6087 15.5377 13.6087 15.5297 13.6087 15.5217C13.6087 15.5139 13.6087 15.5059 13.6087 15.4979C13.6087 15.4901 13.6087 15.4822 13.6087 15.4743C13.6087 15.4664 13.6087 15.4586 13.6087 15.4508C13.6087 15.4429 13.6087 15.4351 13.6087 15.4274C13.6087 15.4196 13.6087 15.4117 13.6087 15.404C13.6087 15.3964 13.6087 15.3885 13.6087 15.3808C13.6087 15.3731 13.6087 15.3655 13.6087 15.3578C13.6087 15.3502 13.6087 15.3425 13.6087 15.3349C13.6087 15.3273 13.6087 15.3196 13.6087 15.3121C13.6087 15.3046 13.6087 15.297 13.6087 15.2895C13.6087 15.2819 13.6087 15.2744 13.6087 15.2669C13.6087 15.2593 13.6087 15.2519 13.6087 15.2444C13.6087 15.237 13.6087 15.2296 13.6087 15.2221C13.6087 15.2147 13.6087 15.2073 13.6087 15.1999C13.6087 15.1925 13.6087 15.1853 13.6087 15.1779C13.6087 15.1705 13.6087 15.1632 13.6087 15.156C13.6087 15.1486 13.6087 15.1414 13.6087 15.1341C13.6087 15.1269 13.6087 15.1196 13.6087 15.1124C13.6087 15.1051 13.6087 15.098 13.6087 15.0908C13.6087 15.0836 13.6087 15.0765 13.6087 15.0694C13.6087 15.0621 13.6087 15.055 13.6087 15.0479C13.6087 15.0408 13.6087 15.0337 13.6087 15.0268C13.6087 15.0197 13.6087 15.0126 13.6087 15.0057C13.6087 14.9986 13.6087 14.9916 13.6087 14.9847C13.6087 14.9777 13.6087 14.9706 13.6087 14.9638C13.6087 14.9569 13.6087 14.9499 13.6087 14.943C13.6087 14.936 13.6087 14.9292 13.6087 14.9223C13.6087 14.9155 13.6087 14.9087 13.6087 14.9019C13.6087 14.8949 13.6087 14.8881 13.6087 14.8813C13.6087 14.8747 13.6087 14.8679 13.6087 14.8611C13.6087 14.8544 13.6087 14.8476 13.6087 14.841C13.6087 14.8342 13.6087 14.8275 13.6087 14.8209C13.6087 14.8142 13.6087 14.8076 13.6087 14.8009C13.6087 14.7943 13.6087 14.7876 13.6087 14.7811C13.6087 14.7745 13.6087 14.7679 13.6087 14.7613C13.6087 14.7548 13.6087 14.7483 13.6087 14.7418C13.6087 14.7353 13.6087 14.7288 13.6087 14.7223C13.6087 14.7158 13.6087 14.7093 13.6087 14.7029C13.6087 14.6964 13.6087 14.69 13.6087 14.6835C13.6087 14.6772 13.6087 14.6708 13.6087 14.6645C13.6087 14.6581 13.6087 14.6518 13.6087 14.6454C13.6087 14.639 13.6087 14.6328 13.6087 14.6265C13.6087 14.6201 13.6087 14.6139 13.6087 14.6077C13.6087 14.6013 13.6087 14.5951 13.6087 14.5889C13.6087 14.5827 13.6087 14.5765 13.6087 14.5703C13.6087 14.5642 13.6087 14.558 13.6087 14.5518C13.6087 14.5458 13.6087 14.5396 13.6087 14.5335C13.6087 14.5274 13.6087 14.5214 13.6087 14.5152C13.6087 14.5091 13.6087 14.503 13.6087 14.4971C13.6087 14.4911 13.6087 14.485 13.6087 14.4791C13.6087 14.473 13.6087 14.4671 13.6087 14.4611C13.6087 14.4551 13.6087 14.4492 13.6087 14.4433C13.6087 14.4374 13.6087 14.4315 13.6087 14.4256C13.6087 14.4197 13.6087 14.4138 13.6087 14.408C13.6087 14.4021 13.6087 14.3963 13.6087 14.3904C13.6087 14.3846 13.6087 14.3789 13.6087 14.3731C13.6087 14.3672 13.6087 14.3614 13.6087 14.3558C13.6087 14.35 13.6087 14.3443 13.6087 14.3385C13.6087 14.3329 13.6087 14.3271 13.6087 14.3215C13.6087 14.3157 13.6087 14.3101 13.6087 14.3045C13.6087 14.2989 13.6087 14.2933 13.6087 14.2877C13.6087 14.282 13.6087 14.2764 13.6087 14.271C13.6087 14.2653 13.6087 14.2597 13.6087 14.2543C13.6087 14.2486 13.6087 14.2432 13.6087 14.2377C13.6087 14.2322 13.6087 14.2268 13.6087 14.2213C13.6087 14.2158 13.6087 14.2103 13.6087 14.2049C13.6087 14.1994 13.6087 14.1941 13.6087 14.1886C13.6087 14.1833 13.6087 14.1778 13.6087 14.1725C13.6087 14.1672 13.6087 14.1619 13.6087 14.1565C13.6087 14.1512 13.6087 14.1459 13.6087 14.1406C13.6087 14.1353 13.6087 14.1301 13.6087 14.1248C13.6087 14.1194 13.6087 14.1143 13.6087 14.1091C13.6087 14.1038 13.6087 14.0986 13.6087 14.0934C13.6087 14.0882 13.6087 14.0831 13.6087 14.0779C13.6087 14.0727 13.6087 14.0675 13.6087 14.0625C13.6087 14.0573 13.6087 14.0522 13.6087 14.0471C13.6087 14.0421 13.6087 14.0369 13.6087 14.0319C13.6087 14.0269 13.6087 14.0219 13.6087 14.0168C13.6087 14.0118 13.6087 14.0068 13.6087 14.0018C13.6087 13.9967 13.6087 13.9919 13.6087 13.9868C13.6087 13.982 13.6087 13.9769 13.6087 13.9721C13.6087 13.9672 13.6087 13.9623 13.6087 13.9573C13.6087 13.9524 13.6087 13.9475 13.6087 13.9428C13.6087 13.9379 13.6087 13.933 13.6087 13.9281C13.6087 13.9234 13.6087 13.9185 13.6087 13.9138C13.6087 13.9089 13.6087 13.9042 13.6087 13.8995C13.6087 13.8947 13.6087 13.8899 13.6087 13.8853C13.6087 13.8805 13.6087 13.8758 13.6087 13.8711C13.6087 13.8664 13.6087 13.8616 13.6087 13.857C13.6087 13.8523 13.6087 13.8477 13.6087 13.8431C13.6087 13.8384 13.6087 13.8338 13.6087 13.8293C13.6087 13.8247 13.6087 13.8201 13.6087 13.8155C13.6087 13.8109 13.6087 13.8063 13.6087 13.8019C13.6087 13.7973 13.6087 13.7927 13.6087 13.7883C13.6087 13.7837 13.6087 13.7793 13.6087 13.7749C13.6087 13.7703 13.6087 13.7658 13.6087 13.7614C13.6087 13.757 13.6087 13.7525 13.6087 13.7481C13.6087 13.7438 13.6087 13.7394 13.6087 13.7349C13.6087 13.7307 13.6087 13.7262 13.6087 13.7219C13.6087 13.7175 13.6087 13.7132 13.6087 13.7089C13.6087 13.7046 13.6087 13.7002 13.6087 13.6959C13.6087 13.6916 13.6087 13.6875 13.6087 13.6832C13.6087 13.6789 13.6087 13.6746 13.6087 13.6705C13.6087 13.6662 13.6087 13.6621 13.6087 13.6578C13.6087 13.6536 13.6087 13.6495 13.6087 13.6452C13.6087 13.6411 13.6087 13.6369 13.6087 13.6328C13.6087 13.6287 13.6087 13.6245 13.6087 13.6205C13.6087 13.6164 13.6087 13.6122 13.6087 13.6083C13.6087 13.6041 13.6087 13.6001 13.6087 13.596C13.6087 13.592 13.6087 13.588 13.6087 13.5839C13.6087 13.5799 13.6087 13.5759 13.6087 13.5719C13.6087 13.5679 13.6087 13.5641 13.6087 13.5601C13.6087 13.5561 13.6087 13.5521 13.6087 13.5482C13.6087 13.5442 13.6087 13.5404 13.6087 13.5364C13.6087 13.5326 13.6087 13.5287 13.6087 13.5249C13.6087 13.5209 13.6087 13.517 13.6087 13.5132C13.6087 13.5094 13.6087 13.5057 13.6087 13.5018C13.6087 13.498 13.6087 13.4941 13.6087 13.4904C13.6087 13.4866 13.6087 13.4829 13.6087 13.4791C13.6087 13.4754 13.6087 13.4717 13.6087 13.468C13.6087 13.4641 13.6087 13.4604 13.6087 13.4567C13.6087 13.453 13.6087 13.4493 13.6087 13.4458C13.6087 13.4421 13.6087 13.4384 13.6087 13.4349C13.6087 13.4312 13.6087 13.4275 13.6087 13.4239C13.6087 13.4204 13.6087 13.4167 13.6087 13.4131C13.6087 13.4096 13.6087 13.406 13.6087 13.4025C13.6087 13.3989 13.6087 13.3954 13.6087 13.3918C13.6087 13.3883 13.6087 13.3847 13.6087 13.3813C13.6087 13.3778 13.6087 13.3742 13.6087 13.3708C13.6087 13.3673 13.6087 13.3639 13.6087 13.3605C13.6087 13.3569 13.6087 13.3535 13.6087 13.3501C13.6087 13.3467 13.6087 13.3433 13.6087 13.3399C13.6087 13.3365 13.6087 13.3331 13.6087 13.3299C13.6087 13.3265 13.6087 13.3231 13.6087 13.3198C13.6087 13.3164 13.6087 13.3132 13.6087 13.3098C13.6087 13.3065 13.6087 13.3033 13.6087 13.3C13.6087 13.2966 13.6087 13.2934 13.6087 13.2901C13.6087 13.2869 13.6087 13.2836 13.6087 13.2805C13.6087 13.2773 13.6087 13.274 13.6087 13.2708C13.6087 13.2677 13.6087 13.2644 13.6087 13.2613C13.6087 13.2581 13.6087 13.2549 13.6087 13.2518C13.6087 13.2486 13.6087 13.2455 13.6087 13.2424C13.6087 13.2393 13.6087 13.2362 13.6087 13.2331C13.6087 13.23 13.6087 13.2269 13.6087 13.2239C13.6087 13.2208 13.6087 13.2177 13.6087 13.2147C13.6087 13.2116 13.6087 13.2087 13.6087 13.2056C13.6087 13.2026 13.6087 13.1995 13.6087 13.1966C13.6087 13.1936 13.6087 13.1906 13.6087 13.1877C13.6087 13.1847 13.6087 13.1818 13.6087 13.1788C13.6087 13.1759 13.6087 13.1729 13.6087 13.1701C13.6087 13.1671 13.6087 13.1642 13.6087 13.1614C13.6087 13.1584 13.6087 13.1556 13.6087 13.1527C13.6087 13.1498 13.6087 13.147 13.6087 13.1442C13.6087 13.1413 13.6087 13.1385 13.6087 13.1357C13.6087 13.1328 13.6087 13.13 13.6087 13.1272C13.6087 13.1244 13.6087 13.1218 13.6087 13.1189C13.6087 13.1161 13.6087 13.1135 13.6087 13.1107C13.6087 13.108 13.6087 13.1052 13.6087 13.1025C13.6087 13.0997 13.6087 13.0971 13.6087 13.0944C13.6087 13.0917 13.6087 13.0891 13.6087 13.0864C13.6087 13.0838 13.6087 13.0811 13.6087 13.0784C13.6087 13.0758 13.6087 13.0731 13.6087 13.0705C13.6087 13.0679 13.6087 13.0653 13.6087 13.0628C13.6087 13.0601 13.6087 13.0576 13.6087 13.0549C13.6087 13.0524 13.6087 13.0499 13.6087 13.0473C13.6087 13.0447 13.6087 13.0422 13.6087 13.0397C13.6087 13.0372 13.6087 13.0347 13.6087 13.0322C13.6087 13.0297 13.6087 13.0271 13.6087 13.0248C13.6087 13.0223 13.6087 13.0198 13.6087 13.0174C13.6087 13.0149 13.6087 13.0124 13.6087 13.01C13.6087 13.0076 13.6087 13.0051 13.6087 13.0028C13.6087 13.0004 13.6087 12.9979 13.6087 12.9955C13.6087 12.9931 13.6087 12.9908 13.6087 12.9884C13.6087 12.9861 13.6087 12.9837 13.6087 12.9815C13.6087 12.9791 13.6087 12.9767 13.6087 12.9744C13.6087 12.9722 13.6087 12.9698 13.6087 12.9676C13.6087 12.9652 13.6087 12.963 13.6087 12.9606C13.6087 12.9584 13.6087 12.9562 13.6087 12.954C13.6087 12.9516 13.6087 12.9494 13.6087 12.9472C13.6087 12.945 13.6087 12.9427 13.6087 12.9405C13.6087 12.9383 13.6087 12.9362 13.6087 12.934C13.6087 12.9318 13.6087 12.9296 13.6087 12.9275C13.6087 12.9253 13.6087 12.9232 13.6087 12.921C13.6087 12.9189 13.6087 12.9167 13.6087 12.9147C13.6087 12.9126 13.6087 12.9104 13.6087 12.9083C13.6087 12.9062 13.6087 12.9042 13.6087 12.9021C13.6087 12.9 13.6087 12.8979 13.6087 12.8959C13.6087 12.8938 13.6087 12.8917 13.6087 12.8898C13.6087 12.8877 13.6087 12.8857 13.6087 12.8838C13.6087 12.8817 13.6087 12.8798 13.6087 12.8777C13.6087 12.8758 13.6087 12.8737 13.6087 12.8718C13.6087 12.8699 13.6087 12.8678 13.6087 12.8659C13.6087 12.8639 13.6087 12.862 13.6087 12.8601C13.6087 12.8582 13.6087 12.8563 13.6087 12.8543C13.6087 12.8524 13.6087 12.8505 13.6087 12.8487C13.6087 12.8468 13.6087 12.8449 13.6087 12.8431C13.6087 12.8412 13.6087 12.8394 13.6087 12.8375C13.6087 12.8357 13.6087 12.8338 13.6087 12.832C13.6087 12.8301 13.6087 12.8283 13.6087 12.8265C13.6087 12.8248 13.6087 12.823 13.6087 12.8212C13.6087 12.8195 13.6087 12.8177 13.6087 12.8159C13.6087 12.8141 13.6087 12.8124 13.6087 12.8106C13.6087 12.8088 13.6087 12.807 13.6087 12.8054C13.6087 12.8036 13.6087 12.8019 13.6087 12.8002C13.6087 12.7985 13.6087 12.7968 13.6087 12.7952C13.6087 12.7934 13.6087 12.7918 13.6087 12.79C13.6087 12.7884 13.6087 12.7868 13.6087 12.7852C13.6087 12.7835 13.6087 12.7819 13.6087 12.7803C13.6087 12.7787 13.6087 12.777 13.6087 12.7754C13.6087 12.7738 13.6087 12.7721 13.6087 12.7705C13.6087 12.7689 13.6087 12.7674 13.6087 12.7658C13.6087 12.7642 13.6087 12.7627 13.6087 12.7611C13.6087 12.7596 13.6087 12.758 13.6087 12.7565C13.6087 12.755 13.6087 12.7534 13.6087 12.7519C13.6087 12.7504 13.6087 12.7489 13.6087 12.7473C13.6087 12.7458 13.6087 12.7444 13.6087 12.7429C13.6087 12.7414 13.6087 12.7399 13.6087 12.7384C13.6087 12.737 13.6087 12.7356 13.6087 12.7342C13.6087 12.7327 13.6087 12.7312 13.6087 12.7299C13.6087 12.7284 13.6087 12.7269 13.6087 12.7256C13.6087 12.7241 13.6087 12.7228 13.6087 12.7213C13.6087 12.72 13.6087 12.7186 13.6087 12.7172C13.6087 12.7158 13.6087 12.7145 13.6087 12.7132C13.6087 12.7117 13.6087 12.7104 13.6087 12.709C13.6087 12.7077 13.6087 12.7064 13.6087 12.705C13.6087 12.7037 13.6087 12.7024 13.6087 12.7012C13.6087 12.6999 13.6087 12.6985 13.6087 12.6972C13.6087 12.696 13.6087 12.6947 13.6087 12.6934C13.6087 12.6922 13.6087 12.6908 13.6087 12.6897C13.6087 12.6883 13.6087 12.6871 13.6087 12.6858C13.6087 12.6846 13.6087 12.6835 13.6087 12.6821C13.6087 12.6809 13.6087 12.6798 13.6087 12.6786C13.6087 12.6774 13.6087 12.6761 13.6087 12.6749C13.6087 12.6737 13.6087 12.6725 13.6087 12.6713C13.6087 12.6701 13.6087 12.6691 13.6087 12.6679C13.6087 12.6667 13.6087 12.6656 13.6087 12.6644C13.6087 12.6633 13.6087 12.6622 13.6087 12.661C13.6087 12.6599 13.6087 12.6588 13.6087 12.6577C13.6087 12.6565 13.6087 12.6555 13.6087 12.6543C13.6087 12.6533 13.6087 12.6523 13.6087 12.6511C13.6087 12.65 13.6087 12.649 13.6087 12.6478C13.6087 12.6468 13.6087 12.6458 13.6087 12.6447C13.6087 12.6437 13.6087 12.6427 13.6087 12.6416C13.6087 12.6406 13.6087 12.6395 13.6087 12.6385C13.6087 12.6375 13.6087 12.6364 13.6087 12.6356C13.6087 12.6345 13.6087 12.6335 13.6087 12.6325C13.6087 12.6316 13.6087 12.6305 13.6087 12.6295C13.6087 12.6286 13.6087 12.6276 13.6087 12.6267C13.6087 12.6257 13.6087 12.6248 13.6087 12.6237C13.6087 12.6228 13.6087 12.622 13.6087 12.6209C13.6087 12.62 13.6087 12.6191 13.6087 12.6183C13.6087 12.6174 13.6087 12.6163 13.6087 12.6155C13.6087 12.6146 13.6087 12.6137 13.6087 12.6128C13.6087 12.6119 13.6087 12.611 13.6087 12.6101C13.6087 12.6092 13.6087 12.6084 13.6087 12.6076C13.6087 12.6067 13.6087 12.6058 13.6087 12.605C13.6087 12.6042 13.6087 12.6033 13.6087 12.6024C13.6087 12.6017 13.6087 12.6008 13.6087 12.5999C13.6087 12.5992 13.6087 12.5983 13.6087 12.5976C13.6087 12.5968 13.6087 12.5959 13.6087 12.5952C13.6087 12.5943 13.6087 12.5936 13.6087 12.5928C13.6087 12.5919 13.6087 12.5912 13.6087 12.5905C13.6087 12.5897 13.6087 12.589 13.6087 12.5883C13.6087 12.5875 13.6087 12.5866 13.6087 12.5859C13.6087 12.5851 13.6087 12.5844 13.6087 12.5838C13.6087 12.5831 13.6087 12.5823 13.6087 12.5816C13.6087 12.5809 13.6087 12.5801 13.6087 12.5795C13.6087 12.5788 13.6087 12.5781 13.6087 12.5773C13.6087 12.5767 13.6087 12.576 13.6087 12.5752C13.6087 12.5747 13.6087 12.5739 13.6087 12.5733C13.6087 12.5726 13.6087 12.572 13.6087 12.5713C13.6087 12.5707 13.6087 12.5701 13.6087 12.5693C13.6087 12.5687 13.6087 12.5681 13.6087 12.5674C13.6087 12.5668 13.6087 12.5662 13.6087 12.5656C13.6087 12.565 13.6087 12.5643 13.6087 12.5637C13.6087 12.5631 13.6087 12.5625 13.6087 12.5619C13.6087 12.5613 13.6087 12.5608 13.6087 12.5602C13.6087 12.5596 13.6087 12.559 13.6087 12.5584C13.6087 12.5578 13.6087 12.5574 13.6087 12.5568C13.6087 12.5562 13.6087 12.5556 13.6087 12.5551C13.6087 12.5545 13.6087 12.554 13.6087 12.5534C13.6087 12.5529 13.6087 12.5523 13.6087 12.5519C13.6087 12.5513 13.6087 12.5509 13.6087 12.5503C13.6087 12.5497 13.6087 12.5492 13.6087 12.5488C13.6087 12.5482 13.6087 12.5477 13.6087 12.5472C13.6087 12.5467 13.6087 12.5463 13.6087 12.5457C13.6087 12.5452 13.6087 12.5461 13.6087 12.5457C13.6087 12.5451 13.6087 12.5433 13.6087 12.5429C13.6087 12.5424 13.6087 12.5433 13.6087 12.5429C13.6087 12.5424 13.6087 12.5407 13.6087 12.5402C13.6087 12.5398 13.6087 12.5407 13.6087 12.5402C13.6087 12.5398 13.6087 12.538 13.6087 12.5375C13.6087 12.5371 13.6087 12.538 13.6087 12.5375C13.6087 12.5371 13.6087 12.5355 13.6087 12.535C13.6087 12.5346 13.6087 12.5353 13.6087 12.535C13.6087 12.5346 13.6087 12.533 13.6087 12.5327C13.6087 12.5322 13.6087 12.5331 13.6087 12.5327C13.6087 12.5322 13.6087 12.5307 13.6087 12.5303C13.6087 12.53 13.6087 12.5306 13.6087 12.5303C13.6087 12.53 13.6087 12.5285 13.6087 12.5282C13.6087 12.5278 13.6087 12.5285 13.6087 12.5282C13.6087 12.5278 13.6087 12.5265 13.6087 12.5262C13.6087 12.5259 13.6087 12.5265 13.6087 12.5262C13.6087 12.5259 13.6087 12.5245 13.6087 12.5242C13.6087 12.5238 13.6087 12.5245 13.6087 12.5242C13.6087 12.5239 13.6087 12.5226 13.6087 12.5223C13.6087 12.522 13.6087 12.5226 13.6087 12.5223C13.6087 12.522 13.6087 12.5208 13.6087 12.5205C13.6087 12.5203 13.6087 12.5208 13.6087 12.5205C13.6087 12.5203 13.6087 12.5192 13.6087 12.5189C13.6087 12.5186 13.6087 12.5192 13.6087 12.5189C13.6087 12.5188 13.6087 12.5176 13.6087 12.5173C13.6087 12.517 13.6087 12.5154 13.6087 12.5151C13.6087 12.5149 13.6087 12.5133 13.6087 12.5132C13.6087 12.513 13.6087 12.5115 13.6087 12.5114C13.6087 12.5112 13.6087 12.5099 13.6087 12.5096C13.6087 12.5095 13.6087 12.5084 13.6087 12.5081C13.6087 12.508 13.6087 12.5067 13.6087 12.5065C13.6087 12.5064 13.6087 12.5067 13.6087 12.5065C13.6087 12.5064 13.6087 12.5052 13.6087 12.505C13.6087 12.5049 13.6087 12.5034 13.6087 12.5033C13.6087 12.5033 13.6087 12.5019 13.6087 12.5018C13.6087 12.5016 13.6087 12.5 13.6087 12.5H12.5ZM13.6087 12.5V5.1087H11.3913V12.5H13.6087Z" fill="white"/>
</g>
</svg>
