<svg width="25" height="25" viewBox="0 0 25 25" fill="none" xmlns="http://www.w3.org/2000/svg">
<g id="icon-download">
<path id="Union" fill-rule="evenodd" clip-rule="evenodd" d="M12.9273 15.9662C12.818 16.0858 12.6635 16.1538 12.5015 16.1538C12.3395 16.1538 12.185 16.0858 12.0757 15.9662L8.9988 12.6008C8.7838 12.3657 8.80014 12.0008 9.03529 11.7858C9.27045 11.5708 9.63537 11.5871 9.85037 11.8222L11.9246 14.0909V5.57692C11.9246 5.2583 12.1829 5 12.5015 5C12.8201 5 13.0784 5.2583 13.0784 5.57692V14.0909L15.1526 11.8222C15.3676 11.5871 15.7326 11.5708 15.9677 11.7858C16.2029 12.0008 16.2192 12.3657 16.0042 12.6008L12.9273 15.9662ZM6.15385 14.8077C6.15385 14.4891 5.89555 14.2308 5.57692 14.2308C5.2583 14.2308 5 14.4891 5 14.8077V14.8499V14.8499C4.99998 15.9019 4.99997 16.7498 5.08963 17.4167C5.18272 18.1091 5.38187 18.6921 5.84488 19.1551C6.30789 19.6181 6.89087 19.8173 7.58327 19.9104C8.25016 20 9.0981 20 10.1501 20H10.1501H14.8499H14.8499C15.9019 20 16.7498 20 17.4167 19.9104C18.1091 19.8173 18.6921 19.6181 19.1551 19.1551C19.6181 18.6921 19.8173 18.1091 19.9104 17.4167C20 16.7498 20 15.9019 20 14.8499V14.8077C20 14.4891 19.7417 14.2308 19.4231 14.2308C19.1045 14.2308 18.8462 14.4891 18.8462 14.8077C18.8462 15.9118 18.8449 16.6819 18.7668 17.263C18.6909 17.8274 18.5521 18.1263 18.3392 18.3392C18.1263 18.5521 17.8274 18.6909 17.263 18.7668C16.6819 18.8449 15.9118 18.8462 14.8077 18.8462H10.1923C9.08814 18.8462 8.31805 18.8449 7.73702 18.7668C7.17258 18.6909 6.87368 18.5521 6.66078 18.3392C6.44788 18.1263 6.30908 17.8274 6.23319 17.263C6.15507 16.6819 6.15385 15.9118 6.15385 14.8077Z" fill="#0066FF"/>
</g>
</svg>
