<svg width="25" height="25" viewBox="0 0 25 25" fill="none" xmlns="http://www.w3.org/2000/svg">
<g id="icon-trash">
<path id="Union" fill-rule="evenodd" clip-rule="evenodd" d="M5.64286 6.83338C5.28782 6.83338 5 7.15051 5 7.5417C5 7.93291 5.28782 8.25004 5.64286 8.25004H19.3572C19.7122 8.25004 20 7.93291 20 7.5417C20 7.15051 19.7122 6.83338 19.3572 6.83338H17.2143C16.7732 6.82106 16.3068 6.51162 16.1567 6.05439C16.1528 6.04246 16.1483 6.02774 16.1322 5.97483L16.1319 5.97375L16.0362 5.65746C15.9777 5.46354 15.9267 5.29459 15.8553 5.14357C15.5734 4.54697 15.0518 4.13269 14.4489 4.02662C14.2964 3.99978 14.1348 3.99989 13.9494 4.00002L13.9493 4.00002H11.0509L11.0508 4.00002C10.8653 3.99989 10.7038 3.99978 10.5512 4.02662C9.9484 4.13269 9.42674 4.54697 9.14479 5.14357C9.07342 5.29457 9.02243 5.4635 8.96389 5.6574L8.96387 5.65746L8.86821 5.97375C8.85193 6.02754 8.8474 6.04238 8.84345 6.05439C8.69335 6.51162 8.30418 6.82068 7.86306 6.83299L5.64286 6.83338ZM13.0364 21H12.3807C10.1244 21 8.9963 21 8.26281 20.2663C7.52931 19.5325 7.45427 18.329 7.30419 15.9219L7.08793 12.4533C7.0065 11.1473 6.96578 10.4942 7.33375 10.0804C7.70172 9.66658 8.32311 9.66658 9.5659 9.66658H15.8512C17.094 9.66658 17.7154 9.66658 18.0834 10.0804C18.4513 10.4942 18.4106 11.1472 18.3292 12.453L18.3292 12.4533L18.1129 15.9219C17.9629 18.329 17.8878 19.5325 17.1543 20.2663C16.4208 21 15.2927 21 13.0364 21Z" fill="#B1B7E6"/>
</g>
</svg>
