<svg width="25" height="25" viewBox="0 0 25 25" fill="none" xmlns="http://www.w3.org/2000/svg">
<g id="icon-reject">
<path id="Vector" d="M12.4999 4.34766C8.00475 4.34766 4.34766 8.00486 4.34766 12.5002C4.3481 16.9952 8.00519 20.652 12.4999 20.652C16.995 20.652 20.652 16.9951 20.652 12.5001C20.652 8.00486 16.995 4.34766 12.4999 4.34766ZM12.4999 5.83289C14.0711 5.83289 15.5167 6.37956 16.6575 7.29224L7.29216 16.6572C6.37966 15.5165 5.83308 14.0711 5.83293 12.5002C5.83293 8.82382 8.82373 5.83289 12.4999 5.83289ZM12.4999 19.1668C10.9289 19.1668 9.48314 18.6201 8.3423 17.7074L17.7077 8.3425C18.6202 9.48331 19.1668 10.929 19.1668 12.5001C19.1667 16.1761 16.176 19.1668 12.4999 19.1668Z" fill="#B1B7E6"/>
</g>
</svg>
