<svg width="20" height="20" viewBox="0 0 20 20" fill="none" xmlns="http://www.w3.org/2000/svg">
<g id="icon-upload">
<path id="Union" fill-rule="evenodd" clip-rule="evenodd" d="M10.3418 4.15011C10.2544 4.05447 10.1308 4 10.0012 4C9.87162 4 9.74801 4.05447 9.66058 4.15011L7.19904 6.84241C7.02704 7.03054 7.04011 7.32248 7.22823 7.49448C7.41636 7.66647 7.7083 7.6534 7.8803 7.46528L9.53967 5.65034V12.4615C9.53967 12.7164 9.7463 12.9231 10.0012 12.9231C10.2561 12.9231 10.4627 12.7164 10.4627 12.4615V5.65034L12.1221 7.46528C12.2941 7.6534 12.5861 7.66647 12.7742 7.49448C12.9623 7.32248 12.9754 7.03054 12.8034 6.84241L10.3418 4.15011ZM4.92308 11.8462C4.92308 11.5913 4.71644 11.3846 4.46154 11.3846C4.20664 11.3846 4 11.5913 4 11.8462V11.8799V11.8799C3.99999 12.7215 3.99998 13.3999 4.07171 13.9334C4.14618 14.4873 4.3055 14.9537 4.6759 15.3241C5.04631 15.6945 5.5127 15.8538 6.06661 15.9283C6.60013 16 7.27847 16 8.12006 16H8.12007H11.8799H11.8799C12.7215 16 13.3999 16 13.9334 15.9283C14.4873 15.8538 14.9537 15.6945 15.3241 15.3241C15.6945 14.9537 15.8538 14.4873 15.9283 13.9334C16 13.3999 16 12.7215 16 11.8799V11.8462C16 11.5913 15.7934 11.3846 15.5385 11.3846C15.2836 11.3846 15.0769 11.5913 15.0769 11.8462C15.0769 12.7295 15.0759 13.3455 15.0134 13.8104C14.9527 14.2619 14.8417 14.501 14.6714 14.6714C14.501 14.8417 14.2619 14.9527 13.8104 15.0134C13.3455 15.0759 12.7295 15.0769 11.8462 15.0769H8.15385C7.27051 15.0769 6.65444 15.0759 6.18961 15.0134C5.73806 14.9527 5.49894 14.8417 5.32863 14.6714C5.15831 14.501 5.04726 14.2619 4.98655 13.8104C4.92406 13.3455 4.92308 12.7295 4.92308 11.8462Z" fill="#2D336B"/>
</g>
</svg>
