<svg width="30" height="30" viewBox="0 0 30 30" fill="none" xmlns="http://www.w3.org/2000/svg">
<g id="icon-form">
<path id="Union" fill-rule="evenodd" clip-rule="evenodd" d="M8.25 7.8C8.00147 7.8 7.8 8.00147 7.8 8.25V9.601H9.601V7.8H8.25ZM10.501 6H8.25C7.00736 6 6 7.00736 6 8.25V10.501V21.75C6 22.9926 7.00736 24 8.25 24H10.501H21.75C22.9926 24 24 22.9926 24 21.75V8.25C24 7.00736 22.9926 6 21.75 6H10.501ZM11.401 7.8V9.601H22.2L22.2 8.25C22.2 8.00147 21.9985 7.8 21.75 7.8H11.401ZM9.601 11.401H7.8V21.75C7.8 21.9985 8.00147 22.2 8.25 22.2H9.601V11.401ZM11.401 22.2V11.401H22.2V13.1995H17.698C17.2009 13.1995 16.798 13.6024 16.798 14.0995C16.798 14.5966 17.2009 14.9995 17.698 14.9995H22.2V16.8005H17.698C17.2009 16.8005 16.798 17.2034 16.798 17.7005C16.798 18.1976 17.2009 18.6005 17.698 18.6005H22.2V21.75C22.2 21.9985 21.9985 22.2 21.75 22.2H11.401ZM14.549 13.32C14.0519 13.32 13.649 13.723 13.649 14.22C13.649 14.7171 14.0519 15.12 14.549 15.12H14.999C15.4961 15.12 15.899 14.7171 15.899 14.22C15.899 13.723 15.4961 13.32 14.999 13.32H14.549ZM13.649 17.58C13.649 17.0829 14.0519 16.68 14.549 16.68H14.999C15.4961 16.68 15.899 17.0829 15.899 17.58C15.899 18.077 15.4961 18.48 14.999 18.48H14.549C14.0519 18.48 13.649 18.077 13.649 17.58Z" fill="#B1B7E6"/>
</g>
</svg>
