<svg width="25" height="25" viewBox="0 0 25 25" fill="none" xmlns="http://www.w3.org/2000/svg">
<g id="icon-settings">
<path id="Vector (Stroke)" fill-rule="evenodd" clip-rule="evenodd" d="M13.916 8.69824C14.2121 7.53013 15.2561 6.66699 16.4987 6.66699C17.9715 6.66699 19.1654 7.87956 19.1654 9.37533C19.1654 10.8711 17.9715 12.0837 16.4987 12.0837C15.2561 12.0837 14.2121 11.2205 13.916 10.0524H6.4987C6.13051 10.0524 5.83203 9.74927 5.83203 9.37533C5.83203 9.00138 6.13051 8.69824 6.4987 8.69824H13.916ZM16.4987 8.02116C15.7623 8.02116 15.1654 8.62744 15.1654 9.37533C15.1654 10.1232 15.7623 10.7295 16.4987 10.7295C17.2351 10.7295 17.832 10.1232 17.832 9.37533C17.832 8.62744 17.2351 8.02116 16.4987 8.02116ZM8.4987 13.4378C7.76231 13.4378 7.16536 14.0441 7.16536 14.792C7.16536 15.5399 7.76231 16.1462 8.4987 16.1462C9.23508 16.1462 9.83203 15.5399 9.83203 14.792C9.83203 14.0441 9.23508 13.4378 8.4987 13.4378ZM5.83203 14.792C5.83203 13.2962 7.02595 12.0837 8.4987 12.0837C9.74125 12.0837 10.7853 12.9468 11.0814 14.1149H18.4987C18.8669 14.1149 19.1654 14.418 19.1654 14.792C19.1654 15.1659 18.8669 15.4691 18.4987 15.4691H11.0814C10.7853 16.6372 9.74125 17.5003 8.4987 17.5003C7.02595 17.5003 5.83203 16.2878 5.83203 14.792Z" fill="#8F9BC8"/>
</g>
</svg>
